<svg width="650" height="650" viewBox="0 0 650 650" fill="none" xmlns="http://www.w3.org/2000/svg">
<path d="M345.485 298.479L342.415 303.232L383.41 329.711L386.48 324.958L345.485 298.479Z" fill="#2F2E41"/>
<path d="M388.511 329.637C393.597 321.762 396.125 314.347 394.156 313.076C392.187 311.804 386.468 317.157 381.381 325.032C376.294 332.907 373.767 340.322 375.735 341.593C377.704 342.865 383.424 337.512 388.511 329.637Z" fill="#2F2E41"/>
<path d="M347.515 303.158C352.602 295.283 355.13 287.868 353.161 286.596C351.192 285.324 345.472 290.677 340.386 298.552C335.299 306.427 332.771 313.842 334.74 315.114C336.709 316.386 342.428 311.033 347.515 303.158Z" fill="#2F2E41"/>
<path d="M481.129 551.264C571.335 551.264 644.462 545.687 644.462 538.807C644.462 531.927 571.335 526.349 481.129 526.349C390.924 526.349 317.797 531.927 317.797 538.807C317.797 545.687 390.924 551.264 481.129 551.264Z" fill="#E6E6E6"/>
<path d="M168.332 491.556C258.538 491.556 331.664 485.979 331.664 479.099C331.664 472.219 258.538 466.641 168.332 466.641C78.1263 466.641 5 472.219 5 479.099C5 485.979 78.1263 491.556 168.332 491.556Z" fill="#E6E6E6"/>
<path d="M352.145 508.742C352.417 518.901 354.119 528.971 357.2 538.655C357.27 538.88 357.344 539.101 357.418 539.326H376.282C376.262 539.125 376.242 538.9 376.222 538.655C374.964 524.195 367.712 436.186 376.383 421.136C375.625 422.357 350.683 462.796 352.145 508.742Z" fill="#E6E6E6"/>
<path d="M353.56 538.655C353.718 538.88 353.883 539.105 354.05 539.326H368.202C368.094 539.135 367.97 538.91 367.826 538.655C365.488 534.435 358.568 521.82 352.145 508.742C345.242 494.688 338.909 480.1 339.443 474.82C339.278 476.011 334.502 512.311 353.56 538.655Z" fill="#E6E6E6"/>
<path d="M376.222 288.769C376.222 288.769 344.707 319.654 357.943 323.436C371.18 327.218 386.307 295.072 386.307 295.072L376.222 288.769Z" fill="#A0616A"/>
<path d="M407.738 392.77L403.956 410.419L432.32 411.679L427.908 392.77H407.738Z" fill="#A0616A"/>
<path d="M497.242 501.814L493.46 519.463L521.824 520.723L517.412 501.814H497.242Z" fill="#A0616A"/>
<path d="M447.447 274.902L449.969 284.987C449.969 284.987 380.004 271.12 383.786 306.417C387.568 341.715 403.956 375.752 403.956 375.752C403.956 375.752 402.695 387.097 405.216 388.988C407.738 390.879 405.216 397.182 405.216 397.182C405.216 397.182 428.538 400.334 429.168 394.661C429.506 390.869 429.293 387.047 428.538 383.315C428.538 383.315 429.799 383.315 428.538 377.012C427.277 370.709 422.185 319.876 418.403 312.943C418.403 312.943 451.86 338.563 469.508 335.412C469.508 335.412 466.987 360.624 477.072 394.031C487.157 427.437 487.157 431.219 487.157 431.219C487.157 431.219 499.133 494.881 495.981 502.444L495.351 505.596H518.672C518.672 505.596 516.782 472.189 518.672 467.777C520.563 463.365 520.563 425.546 509.848 406.637C502.26 393.246 503.673 354.419 507.824 339.072C511.31 326.184 512.19 316.265 510.147 303.072C507.962 288.963 501.437 281.587 493.46 274.902H447.447Z" fill="#2F2E41"/>
<path d="M466.041 180.04C478.573 180.04 488.733 169.881 488.733 157.349C488.733 144.817 478.573 134.658 466.041 134.658C453.509 134.658 443.35 144.817 443.35 157.349C443.35 169.881 453.509 180.04 466.041 180.04Z" fill="#A0616A"/>
<path d="M460.053 173.422C460.053 173.422 466.987 193.592 466.357 197.374C465.726 201.156 486.527 189.81 486.527 189.81C486.527 189.81 478.332 169.64 480.854 163.967L460.053 173.422Z" fill="#A0616A"/>
<path d="M485.266 182.876L463.205 191.701L464.466 199.265C464.466 199.265 462.575 201.786 463.205 203.046C463.835 204.307 455.011 209.35 456.272 211.24C457.532 213.131 448.708 220.695 449.338 222.586C449.969 224.477 429.168 235.823 440.514 257.884C440.514 257.884 446.396 265.531 445.659 274.574C445.633 274.892 445.599 275.211 445.556 275.532C444.296 284.987 493.46 274.272 493.46 274.272V263.556C493.46 263.556 497.872 261.665 497.242 253.471C496.612 245.277 492.83 249.059 497.242 244.647C501.654 240.235 501.654 240.865 501.024 237.083C500.772 235.573 500.721 230.143 500.751 224.164C500.809 211.532 496.695 199.234 489.048 189.18L485.266 182.876Z" fill="#6C63FF"/>
<path d="M473.29 199.265L432.32 242.126L372.44 289.399L385.677 300.114L495.981 226.368C495.981 226.368 505.436 186.028 473.29 199.265Z" fill="#6C63FF"/>
<path d="M409.629 402.225C409.629 402.225 405.216 394.661 402.065 397.182L380.004 414.831C380.004 414.831 340.925 426.177 378.743 435.001C378.743 435.001 399.544 438.153 403.956 435.001C408.368 431.849 415.302 432.48 417.192 433.74C419.083 435.001 443.035 433.11 443.035 428.068C443.035 423.025 429.825 400.987 429.825 400.987C429.825 400.987 422.235 409.789 409.629 402.225Z" fill="#2F2E41"/>
<path d="M499.133 511.269C499.133 511.269 494.721 503.705 491.569 506.226L469.508 523.875C469.508 523.875 430.429 535.22 468.248 544.045C468.248 544.045 489.048 547.196 493.46 544.045C497.872 540.893 504.806 541.523 506.697 542.784C508.587 544.045 532.539 542.154 532.539 537.111C532.539 532.069 519.329 510.031 519.329 510.031C519.329 510.031 511.739 518.832 499.133 511.269Z" fill="#2F2E41"/>
<path d="M438.848 148.35C438.848 148.35 442.685 114.624 475.498 124.2C475.498 124.2 498.712 119.478 506.911 148.471L515.233 178.868L511.424 176.889L509.74 180.764L503.661 182.429L500.947 177.29L499.803 183.615L457.819 192.104C457.819 192.104 472.018 175.881 471.917 152.121L467.735 156.713L438.848 148.35Z" fill="#2F2E41"/>
<path d="M213.375 120.926H160.889V186.377H213.375V120.926Z" fill="#2F2E41"/>
<path d="M117.548 426.232L110.391 452.572L122.32 461.352L125.501 458.957L131.067 431.819L117.548 426.232Z" fill="#FFB8B8"/>
<path d="M207.411 423.837L205.025 455.764H220.135V426.232L207.411 423.837Z" fill="#FFB8B8"/>
<path d="M159.696 221.896V241.053L189.12 245.842L214.568 235.466L209.796 223.492L159.696 221.896Z" fill="#FFB8B8"/>
<path d="M183.553 237.86L158.106 233.071L151.744 284.953L135.839 349.606C135.839 349.606 111.982 404.681 115.163 417.452L116.753 421.443L115.163 428.626L131.067 435.012L137.429 424.635C137.429 424.635 142.201 431.819 150.153 416.654C158.106 401.488 191.506 307.302 191.506 307.302L197.072 323.266C195.633 328.191 195.36 333.383 196.277 338.431C197.868 346.413 199.458 371.157 199.458 371.157C199.458 371.157 190.711 414.259 202.639 417.452L205.025 427.03L221.725 428.626L224.906 419.048C224.906 419.048 240.811 413.461 236.835 385.524C232.858 357.588 231.268 265.797 231.268 265.797L215.601 227.025L183.553 237.86Z" fill="#2F2E41"/>
<path d="M115.163 450.976C115.163 450.976 111.186 447.783 109.596 448.581C108.005 449.379 91.3053 470.93 91.3053 470.93C91.3053 470.93 73.81 484.499 86.5339 486.096C99.2578 487.692 134.248 470.132 134.248 466.141C134.248 462.15 126.896 452.155 126.896 452.155C126.896 452.155 121.525 456.563 115.163 450.976Z" fill="#2F2E41"/>
<path d="M203.434 448.581C203.434 448.581 217.749 447.689 220.135 450.13C222.52 452.572 221.725 464.545 221.725 464.545C221.725 464.545 223.316 486.096 210.592 486.096C197.868 486.096 201.049 471.728 201.049 471.728L203.434 448.581Z" fill="#2F2E41"/>
<path d="M189.12 151.656C200.1 151.656 209.001 142.722 209.001 131.702C209.001 120.681 200.1 111.747 189.12 111.747C178.14 111.747 169.239 120.681 169.239 131.702C169.239 142.722 178.14 151.656 189.12 151.656Z" fill="#FFB8B8"/>
<path d="M175.999 144.074C175.999 144.074 187.132 157.643 164.865 168.019C142.598 178.396 180.77 221.497 180.77 221.497C180.77 221.497 225.304 204.736 221.327 172.01C221.327 172.01 194.289 167.221 200.651 144.872L175.999 144.074Z" fill="#FFB8B8"/>
<path d="M164.07 167.221C164.07 167.221 145.78 164.826 144.984 179.992C144.189 195.157 144.984 231.874 144.984 231.874C144.984 231.874 137.032 263.801 141.008 291.738C141.008 291.738 136.237 324.463 148.961 322.867C161.684 321.271 152.141 289.343 152.141 289.343L157.708 237.461L155.322 199.148L165.661 176.001L164.07 167.221Z" fill="#FFB8B8"/>
<path d="M216.71 170.747C216.71 170.747 234.051 170.414 234.847 183.185C235.642 195.956 229.28 235.067 229.28 235.067L219.737 239.856L210.989 212.717L216.71 170.747Z" fill="#FFB8B8"/>
<path d="M221.725 236.264L220.135 240.255L224.906 252.228C224.906 252.228 205.82 267.393 207.411 270.586C209.001 273.778 217.749 266.595 217.749 266.595L230.473 272.98C230.473 272.98 240.811 261.806 236.039 251.429C233.396 245.851 231.185 240.078 229.425 234.161C229.425 234.161 222.52 233.869 221.725 236.264Z" fill="#FFB8B8"/>
<path d="M160.491 164.427L158.106 190.767C158.106 190.767 146.972 201.942 159.696 217.107L158.106 229.08C158.106 229.08 187.53 227.484 193.096 229.08C198.663 230.677 215.855 227.795 215.855 227.795L216.158 218.704C216.158 218.704 224.111 207.529 221.725 190.767C219.339 174.005 221.725 168.418 221.725 168.418L216.158 167.62C216.158 167.62 212.58 191.965 187.927 194.359C187.927 194.359 157.31 197.153 166.058 164.427L160.491 164.427Z" fill="#E6E6E6"/>
<path d="M191.108 99.3752C191.108 99.3752 170.432 98.0887 165.66 110.994C160.889 123.899 152.539 130.674 152.539 130.674C152.539 130.674 139.386 139.851 145.962 156.233C145.962 156.233 125.501 170.034 139.02 182.294C139.02 182.294 138.225 194.554 146.177 202.942C146.177 202.942 152.539 206.168 150.153 208.104C147.768 210.04 166.058 208.749 164.468 191.328C162.877 173.906 173.613 161.634 173.613 161.634C173.613 161.634 163.275 139.046 168.046 131.303C170.943 126.602 172.187 123.096 174.592 121.067C175.932 119.963 177.174 118.747 178.305 117.43C179.371 116.074 180.823 115.073 182.47 114.557C184.116 114.042 185.88 114.037 187.53 114.543C194.687 116.478 196.277 122.286 196.277 122.286C196.277 122.286 201.446 136.159 210.194 142.611C218.942 149.064 203.434 160.355 203.434 160.355C203.434 160.355 206.13 173.65 213.132 181.521C220.135 189.392 211.114 196.253 210.592 197.135C209.399 199.148 204.635 211.863 224.313 211.919C224.313 211.919 228.882 202.297 235.244 196.49C241.606 190.682 236.835 173.906 236.835 173.906C236.835 173.906 246.378 168.098 236.039 153.903C236.039 153.903 239.22 140.998 230.473 132.61C230.473 132.61 218.146 94.8585 191.108 99.3752Z" fill="#2F2E41"/>
<path d="M167.648 134.495C168.746 134.495 169.637 133.066 169.637 131.303C169.637 129.539 168.746 128.11 167.648 128.11C166.55 128.11 165.66 129.539 165.66 131.303C165.66 133.066 166.55 134.495 167.648 134.495Z" fill="#FFB8B8"/>
<path d="M72.6902 460.539H23.8875V466.197H72.6902V460.539Z" fill="#2F2E41"/>
<path d="M72.6903 480.343C75.034 480.343 76.934 472.743 76.934 463.368C76.934 453.993 75.034 446.393 72.6903 446.393C70.3465 446.393 68.4465 453.993 68.4465 463.368C68.4465 472.743 70.3465 480.343 72.6903 480.343Z" fill="#2F2E41"/>
<path d="M23.8875 480.343C26.2313 480.343 28.1313 472.743 28.1313 463.368C28.1313 453.993 26.2313 446.393 23.8875 446.393C21.5438 446.393 19.6438 453.993 19.6438 463.368C19.6438 472.743 21.5438 480.343 23.8875 480.343Z" fill="#2F2E41"/>
<path d="M61.1051 460.539H12.3024V466.197H61.1051V460.539Z" fill="#2F2E41"/>
<path d="M61.1051 480.343C63.4488 480.343 65.3488 472.743 65.3488 463.368C65.3488 453.993 63.4488 446.393 61.1051 446.393C58.7613 446.393 56.8613 453.993 56.8613 463.368C56.8613 472.743 58.7613 480.343 61.1051 480.343Z" fill="#2F2E41"/>
<path d="M12.3024 480.343C14.6462 480.343 16.5462 472.743 16.5462 463.368C16.5462 453.993 14.6462 446.393 12.3024 446.393C9.9587 446.393 8.05872 453.993 8.05872 463.368C8.05872 472.743 9.9587 480.343 12.3024 480.343Z" fill="#2F2E41"/>
</svg>
