<svg width="650" height="650" viewBox="0 0 650 650" fill="none" xmlns="http://www.w3.org/2000/svg">
<path d="M291.403 490.853C291.403 490.853 301.814 473.773 315.181 483.872C328.547 493.971 353.301 511.011 353.301 511.011C353.301 511.011 358.371 521.91 345.249 517.816C332.126 513.722 289.289 507.134 289.289 507.134L291.403 490.853Z" fill="#FEB8B8"/>
<path d="M33.453 405.378C36.7707 378.7 53.3043 352.414 78.7472 343.732C68.7133 371.192 68.7154 401.315 78.7533 428.773C82.6629 439.348 88.1125 450.703 84.435 461.362C82.1469 467.994 76.5494 473.067 70.2926 476.24C64.0353 479.413 57.091 480.925 50.2337 482.407L48.8841 483.523C37.9982 458.942 30.1353 432.056 33.453 405.378Z" fill="#F0F0F0"/>
<path d="M78.9997 344.237C64.183 360.838 54.974 381.687 52.6807 403.82C52.1024 408.576 52.2774 413.394 53.1993 418.095C54.2453 422.646 56.4909 426.834 59.7028 430.224C62.634 433.444 66.0053 436.399 68.1027 440.276C69.1468 442.277 69.7562 444.475 69.891 446.728C70.0258 448.98 69.6829 451.236 68.8848 453.347C67.0331 458.658 63.3835 462.987 59.6673 467.096C55.5412 471.659 51.1831 476.333 49.4292 482.382C49.2167 483.114 48.0919 482.742 48.3041 482.01C51.3556 471.486 61.5716 465.508 66.4437 456.029C68.717 451.606 69.6713 446.471 67.54 441.802C65.6763 437.72 62.2024 434.67 59.2063 431.434C56.0245 428.174 53.6896 424.184 52.4054 419.812C51.2472 415.173 50.8868 410.37 51.3399 405.61C52.189 394.877 54.7204 384.343 58.8414 374.396C63.4818 363.018 70.0344 352.517 78.2157 343.348C78.7223 342.781 79.503 343.673 78.9997 344.237Z" fill="white"/>
<path d="M52.9997 396.65C49.3384 395.761 46.1123 393.6 43.8975 390.552C41.6828 387.504 40.6235 383.768 40.909 380.011C40.9693 379.251 42.1531 379.309 42.0926 380.07C41.8204 383.568 42.8074 387.048 44.8756 389.882C46.9438 392.716 49.957 394.717 53.3712 395.525C54.113 395.701 53.7372 396.825 52.9997 396.65Z" fill="white"/>
<path d="M58.0014 428.786C64.6142 424.838 69.4957 418.542 71.6728 411.155C71.8879 410.422 73.0128 410.795 72.7979 411.526C70.5181 419.21 65.4247 425.751 58.5343 429.845C57.8773 430.234 57.348 429.174 58.0014 428.786Z" fill="white"/>
<path d="M64.581 364.14C65.9259 364.779 67.4085 365.075 68.8957 364.999C70.3829 364.924 71.8281 364.48 73.1014 363.708C73.7531 363.31 74.2818 364.371 73.6343 364.766C72.2235 365.613 70.6269 366.101 68.984 366.188C67.341 366.275 65.7018 365.958 64.2094 365.265C64.0633 365.212 63.943 365.105 63.873 364.966C63.8031 364.827 63.7886 364.666 63.8326 364.517C63.8826 364.368 63.9892 364.245 64.1293 364.175C64.2694 364.104 64.4317 364.092 64.581 364.14Z" fill="white"/>
<path d="M156.301 391.383C155.901 391.643 155.501 391.903 155.101 392.173C149.742 395.696 144.679 399.649 139.961 403.993C139.591 404.323 139.221 404.663 138.861 405.003C127.605 415.588 118.413 428.171 111.751 442.113C109.105 447.663 106.885 453.406 105.111 459.293C102.661 467.423 100.651 476.433 95.8008 483.083C95.3026 483.782 94.7615 484.45 94.1807 485.083H50.3506C50.251 485.033 50.1509 484.993 50.0508 484.943L48.3008 485.023C48.3711 484.713 48.4507 484.393 48.521 484.083C48.561 483.903 48.6108 483.723 48.6509 483.543C48.6807 483.423 48.7109 483.303 48.731 483.193C48.7407 483.153 48.751 483.113 48.7607 483.083C48.7807 482.973 48.811 482.873 48.8311 482.773C49.271 480.983 49.7243 479.193 50.1909 477.403C50.1909 477.393 50.1909 477.393 50.2007 477.383C53.791 463.753 58.5508 450.303 65.2007 438.003C65.4009 437.633 65.6006 437.253 65.8208 436.883C68.849 431.355 72.324 426.084 76.2109 421.123C78.3481 418.413 80.621 415.813 83.021 413.333C89.2346 406.936 96.4156 401.557 104.301 397.393C120.021 389.093 138.221 385.913 155.021 390.983C155.451 391.113 155.871 391.243 156.301 391.383Z" fill="#F0F0F0"/>
<path d="M156.202 391.939C134.377 396.274 114.472 407.376 99.3146 423.667C95.9893 427.116 93.2286 431.068 91.134 435.377C89.2292 439.641 88.5009 444.336 89.0246 448.977C89.4261 453.313 90.3388 457.702 89.6792 462.06C89.3084 464.286 88.4713 466.409 87.2227 468.288C85.9742 470.168 84.3424 471.763 82.4343 472.967C77.7582 476.093 72.2378 477.352 66.7965 478.396C60.755 479.555 54.4614 480.663 49.4191 484.436C48.8082 484.894 48.1344 483.919 48.7444 483.462C57.5171 476.897 69.2731 478.275 78.87 473.639C83.3482 471.477 87.2016 467.951 88.311 462.94C89.281 458.558 88.3437 454.031 87.8993 449.644C87.322 445.125 87.86 440.534 89.4663 436.27C91.3348 431.869 93.9387 427.817 97.1665 424.289C104.307 416.23 112.669 409.344 121.949 403.883C132.504 397.592 144.059 393.153 156.111 390.757C156.857 390.61 156.943 391.792 156.202 391.939Z" fill="white"/>
<path d="M103.886 418.134C101.498 415.22 100.223 411.552 100.29 407.785C100.357 404.018 101.76 400.397 104.25 397.569C104.756 396.999 105.666 397.758 105.16 398.329C102.836 400.958 101.529 404.331 101.474 407.839C101.419 411.347 102.62 414.759 104.86 417.459C105.346 418.047 104.369 418.718 103.886 418.134Z" fill="white"/>
<path d="M88.5316 446.805C96.1887 447.633 103.877 445.546 110.063 440.958C110.676 440.503 111.349 441.477 110.738 441.932C104.291 446.694 96.2861 448.85 88.3199 447.97C87.5606 447.886 87.7764 446.721 88.5316 446.805Z" fill="white"/>
<path d="M132.706 399.15C133.395 400.47 134.402 401.598 135.634 402.433C136.867 403.268 138.288 403.784 139.77 403.934C140.53 404.009 140.313 405.174 139.558 405.1C137.922 404.927 136.354 404.355 134.989 403.435C133.625 402.516 132.507 401.276 131.732 399.825C131.648 399.694 131.616 399.536 131.644 399.383C131.672 399.23 131.757 399.093 131.882 399C132.011 398.912 132.171 398.877 132.325 398.906C132.479 398.934 132.616 399.021 132.706 399.15Z" fill="white"/>
<path d="M506.945 443.028C508.231 432.688 514.639 422.501 524.499 419.137C520.611 429.779 520.611 441.453 524.502 452.094C526.017 456.193 528.129 460.593 526.704 464.724C525.683 467.277 523.721 469.341 521.223 470.49C518.744 471.616 516.131 472.419 513.449 472.88L512.926 473.313C508.707 463.786 505.66 453.367 506.945 443.028Z" fill="#F0F0F0"/>
<path d="M524.597 419.332C518.855 425.766 515.286 433.846 514.397 442.424C514.173 444.267 514.241 446.134 514.598 447.956C515.004 449.72 515.874 451.343 517.119 452.657C518.358 453.819 519.451 455.127 520.374 456.552C520.779 457.328 521.015 458.18 521.067 459.053C521.119 459.926 520.987 460.8 520.677 461.618C519.855 463.616 518.641 465.428 517.105 466.947C515.506 468.715 513.817 470.526 513.137 472.87C513.055 473.154 512.619 473.01 512.701 472.726C513.884 468.648 517.843 466.331 519.731 462.658C520.218 461.832 520.509 460.906 520.583 459.95C520.656 458.994 520.51 458.035 520.156 457.144C519.3 455.641 518.21 454.285 516.926 453.126C515.693 451.862 514.788 450.316 514.291 448.622C513.842 446.824 513.702 444.962 513.878 443.117C514.207 438.958 515.188 434.876 516.785 431.021C518.583 426.611 521.123 422.541 524.293 418.988C524.49 418.768 524.792 419.114 524.597 419.332Z" fill="white"/>
<path d="M514.521 439.645C513.102 439.3 511.851 438.463 510.993 437.282C510.135 436.1 509.724 434.652 509.835 433.196C509.858 432.902 510.317 432.924 510.294 433.219C510.188 434.575 510.571 435.924 511.372 437.022C512.174 438.12 513.341 438.896 514.665 439.209C514.952 439.277 514.806 439.713 514.521 439.645Z" fill="white"/>
<path d="M516.459 452.1C519.022 450.569 520.914 448.129 521.758 445.266C521.841 444.983 522.277 445.127 522.194 445.41C521.31 448.388 519.336 450.923 516.666 452.51C516.411 452.661 516.206 452.25 516.459 452.1Z" fill="white"/>
<path d="M519.009 427.046C519.53 427.294 520.105 427.408 520.681 427.379C521.258 427.349 521.818 427.177 522.311 426.878C522.564 426.724 522.769 427.135 522.518 427.288C521.971 427.616 521.352 427.806 520.716 427.839C520.079 427.873 519.444 427.75 518.865 427.482C518.809 427.461 518.762 427.42 518.735 427.366C518.708 427.312 518.702 427.25 518.719 427.192C518.739 427.134 518.78 427.087 518.834 427.059C518.888 427.032 518.951 427.027 519.009 427.046Z" fill="white"/>
<path d="M554.555 437.604C554.4 437.704 554.245 437.805 554.09 437.91C552.014 439.275 550.051 440.807 548.223 442.491C548.079 442.619 547.936 442.75 547.797 442.882C543.434 446.985 539.872 451.861 537.29 457.264C536.265 459.415 535.404 461.641 534.717 463.922C533.767 467.073 532.988 470.565 531.109 473.142C530.915 473.413 530.706 473.672 530.481 473.917H513.494C513.456 473.898 513.417 473.882 513.378 473.863L512.7 473.894C512.727 473.774 512.758 473.65 512.785 473.53C512.801 473.46 512.82 473.39 512.835 473.32C512.847 473.274 512.859 473.227 512.866 473.185C512.87 473.169 512.874 473.154 512.878 473.142C512.886 473.1 512.897 473.061 512.905 473.022C513.076 472.328 513.251 471.635 513.432 470.941L513.436 470.933C514.763 465.634 516.715 460.511 519.249 455.671C519.327 455.528 519.404 455.381 519.49 455.237C520.663 453.095 522.01 451.052 523.516 449.129C524.345 448.079 525.225 447.072 526.156 446.11C528.564 443.632 531.347 441.547 534.403 439.933C540.495 436.716 547.548 435.484 554.059 437.449C554.226 437.499 554.389 437.549 554.555 437.604Z" fill="#F0F0F0"/>
<path d="M554.517 437.819C546.059 439.499 538.344 443.802 532.47 450.116C531.182 451.452 530.112 452.984 529.3 454.654C528.562 456.306 528.279 458.126 528.482 459.924C528.772 461.598 528.857 463.301 528.736 464.995C528.592 465.858 528.268 466.68 527.784 467.409C527.3 468.137 526.668 468.755 525.928 469.222C524.069 470.322 522.008 471.038 519.868 471.326C517.526 471.775 515.087 472.204 513.133 473.667C512.896 473.844 512.635 473.466 512.872 473.289C516.271 470.745 520.828 471.279 524.547 469.482C525.433 469.116 526.223 468.552 526.857 467.833C527.491 467.115 527.952 466.26 528.206 465.336C528.427 463.621 528.373 461.881 528.046 460.183C527.822 458.432 528.031 456.652 528.654 455C529.378 453.294 530.387 451.724 531.638 450.357C534.405 447.233 537.646 444.565 541.242 442.448C545.333 440.01 549.811 438.29 554.482 437.361C554.771 437.304 554.804 437.762 554.517 437.819Z" fill="white"/>
<path d="M534.242 447.971C533.317 446.842 532.823 445.42 532.848 443.96C532.874 442.5 533.418 441.097 534.383 440.001C534.579 439.78 534.932 440.074 534.736 440.296C533.835 441.315 533.329 442.622 533.307 443.981C533.286 445.341 533.751 446.663 534.62 447.71C534.808 447.937 534.429 448.198 534.242 447.971Z" fill="white"/>
<path d="M528.291 459.083C531.259 459.404 534.238 458.595 536.636 456.817C536.873 456.64 537.134 457.018 536.897 457.194C534.399 459.04 531.297 459.875 528.209 459.534C527.915 459.502 527.999 459.05 528.291 459.083Z" fill="white"/>
<path d="M545.411 440.614C545.678 441.125 546.068 441.563 546.546 441.886C547.024 442.21 547.575 442.41 548.149 442.468C548.443 442.497 548.359 442.949 548.067 442.92C547.433 442.853 546.825 442.631 546.296 442.275C545.767 441.918 545.334 441.438 545.034 440.875C545.001 440.825 544.989 440.763 545 440.704C545.01 440.645 545.043 440.592 545.092 440.556C545.142 440.521 545.204 440.508 545.264 440.519C545.323 440.53 545.376 440.564 545.411 440.614Z" fill="white"/>
<path d="M202.327 487.083H22C21.7348 487.083 21.4804 486.977 21.2929 486.79C21.1054 486.602 21 486.348 21 486.083C21 485.817 21.1054 485.563 21.2929 485.376C21.4804 485.188 21.7348 485.083 22 485.083H202C202.265 485.083 202.52 485.188 202.707 485.376C202.895 485.563 203 485.817 203 486.083C203 486.635 202.879 487.083 202.327 487.083Z" fill="#CACACA"/>
<path d="M629.327 473.917H449C448.735 473.917 448.48 473.812 448.293 473.624C448.105 473.437 448 473.183 448 472.917C448 472.652 448.105 472.398 448.293 472.21C448.48 472.023 448.735 471.917 449 471.917H629C629.265 471.917 629.52 472.023 629.707 472.21C629.895 472.398 630 472.652 630 472.917C630 473.47 629.879 473.917 629.327 473.917Z" fill="#CACACA"/>
<path d="M240.258 512.083C229.056 512.083 218.801 511.009 210.653 508.472C200.968 505.457 194.887 500.58 192.577 493.966C191.491 491.159 191.167 488.113 191.637 485.14C192.107 482.166 193.355 479.37 195.254 477.034C209.581 458.365 259.3 453.099 265.971 452.477L279.505 426.85C280.371 420.735 276.274 416.106 283.353 415.991L367.087 414.853C374.039 414.707 372.066 419.012 373.257 424.974L386.014 447.748L331.108 470.921L339.409 491.149L338.867 491.464C322.798 500.786 276.585 512.081 240.258 512.083Z" fill="#2F2E41"/>
<path d="M378.413 448.72C378.413 448.72 455.093 439.945 450.092 475.046C445.092 510.147 386.748 535.01 298.399 475.046L308.401 457.495C308.401 457.495 341.323 455.858 361.327 447.083L378.413 448.72Z" fill="#2F2E41"/>
<path d="M269.854 289.7C269.854 289.7 255.28 287.051 251.305 309.574C247.33 332.098 240.963 385.45 240.963 385.45L221.194 453.984C218.862 455.222 216.931 457.098 215.626 459.392C214.32 461.686 213.694 464.305 213.822 466.942C213.949 469.578 214.823 472.125 216.344 474.283C217.864 476.441 219.967 478.122 222.406 479.13C224.846 480.138 227.523 480.43 230.123 479.974C232.723 479.517 235.139 478.33 237.09 476.552C239.041 474.773 240.445 472.476 241.139 469.929C241.833 467.382 241.788 464.691 241.01 462.168L267.461 389.43L272.504 326.803V293.988C272.504 293.098 272.256 292.225 271.788 291.468C271.32 290.711 270.65 290.099 269.854 289.7Z" fill="#FEB8B8"/>
<path d="M372.438 289.7C372.438 289.7 387.012 287.051 390.987 309.574C394.961 332.098 401.328 385.45 401.328 385.45L421.097 453.984C423.429 455.222 425.36 457.098 426.666 459.392C427.971 461.686 428.597 464.305 428.47 466.942C428.343 469.578 427.468 472.125 425.948 474.283C424.428 476.441 422.325 478.122 419.885 479.13C417.445 480.138 414.769 480.43 412.169 479.974C409.569 479.517 407.152 478.33 405.202 476.552C403.251 474.773 401.847 472.476 401.152 469.929C400.458 467.382 400.503 464.691 401.282 462.168L374.83 389.43L369.788 326.803V293.988C369.788 293.098 370.036 292.225 370.504 291.468C370.972 290.711 371.642 290.099 372.438 289.7Z" fill="#FEB8B8"/>
<path d="M371.327 271.083L343.76 260.772L290.327 260.083L267.327 271.083L273.786 308.209C273.786 308.209 260.744 330.294 275.104 352.381L278.327 431.083C278.327 431.083 329.843 460.956 373.327 425.083L363.499 351.909C363.499 351.909 379.937 317.959 367.196 305.346L371.327 271.083Z" fill="#6C63FF"/>
<path d="M360.099 282.62L371.327 271.083C371.327 271.083 395.831 283.972 395.327 327.083L364.415 317.556L360.099 282.62Z" fill="#6C63FF"/>
<path d="M279.801 282.62L267.871 270.691C267.871 270.691 246.822 286.972 247.327 330.083L275.484 317.556L279.801 282.62Z" fill="#6C63FF"/>
<path d="M357.564 482.325C357.564 482.325 348.977 464.258 334.637 472.919C320.297 481.58 293.912 495.965 293.912 495.965C293.912 495.965 287.741 506.281 301.216 503.568C314.692 500.854 357.981 498.737 357.981 498.737L357.564 482.325Z" fill="#FEB8B8"/>
<path d="M333.708 159.366C333.829 159.25 333.956 159.145 334.076 159.025C341.749 151.352 343.305 140.466 337.549 134.711C332.111 129.273 322.094 130.37 314.532 136.983C308.049 130.811 299.356 129.09 293.729 133.351C287.241 138.264 287.291 149.26 293.843 157.911C294.291 158.504 294.762 159.064 295.245 159.603C286.527 162.794 279 168.586 273.682 176.196C268.364 183.806 265.512 192.865 265.512 202.149V245.269C265.512 246.534 265.761 247.786 266.245 248.954C266.729 250.122 267.438 251.184 268.332 252.078C269.226 252.972 270.288 253.681 271.456 254.165C272.624 254.649 273.876 254.898 275.141 254.898H354.836C357.304 254.898 359.671 253.917 361.416 252.172C363.161 250.427 364.142 248.06 364.142 245.592V202.149C364.14 192.741 361.209 183.566 355.755 175.899C350.302 168.232 342.596 162.454 333.708 159.366Z" fill="#2F2E41"/>
<path d="M342.827 239.519C357.596 224.75 357.596 200.805 342.827 186.037C328.058 171.268 304.113 171.268 289.344 186.037C274.576 200.805 274.575 224.75 289.344 239.519C304.113 254.288 328.058 254.288 342.827 239.519Z" fill="#FFB6B6"/>
<path d="M276.348 188.991C284.99 194.947 295.247 198.117 305.743 198.075C301.999 200.671 297.737 202.424 293.25 203.215C307.205 206.208 321.627 206.289 335.614 203.453C338.724 202.954 341.724 201.924 344.483 200.407C345.858 199.639 347.056 198.59 347.999 197.329C348.942 196.067 349.609 194.622 349.957 193.086C350.887 187.776 346.749 182.951 342.449 179.7C335.866 174.798 328.276 171.421 320.227 169.813C312.178 168.205 303.873 168.405 295.911 170.401C290.713 171.745 285.505 174.015 282.128 178.19C278.752 182.365 277.751 188.801 280.968 193.1L276.348 188.991Z" fill="#2F2E41"/>
<path d="M153.767 318.589L155.241 319.942L128.517 349.069C133.926 347.9 151.141 343.56 158.798 334.295C167.945 323.226 166.362 314.6 159.976 309.323C153.59 304.045 144.82 304.115 135.673 315.184C127.919 324.567 126.972 342.627 126.863 347.913L153.767 318.589Z" fill="#F2F2F2"/>
</svg>
