<svg width="650" height="650" viewBox="0 0 650 650" fill="none" xmlns="http://www.w3.org/2000/svg">
<path d="M625 418H26V425H625V418Z" fill="#3F3D56"/>
<path d="M625 474H26V481H625V474Z" fill="#3F3D56"/>
<path d="M561 424C561 424 551.732 370.545 480 371.003L561 424Z" fill="#3F3D56"/>
<path d="M126 293C142.569 293 156 279.569 156 263C156 246.431 142.569 233 126 233C109.431 233 96 246.431 96 263C96 279.569 109.431 293 126 293Z" fill="#A0616A"/>
<path d="M131.448 226.101C125.722 224.691 119.564 224.456 114.017 226.459C108.303 228.522 103.6 232.834 100.141 237.837C96.6819 242.84 94.3587 248.534 92.2776 254.253C91.0639 257.371 90.1244 260.59 89.47 263.872C88.7237 268.247 88.8674 272.728 89.8923 277.047C90.9173 281.365 92.8023 285.431 95.4344 289C94.5575 286.683 96.7652 284.156 99.1865 283.654C101.608 283.152 104.074 284.001 106.462 284.644C110.67 285.776 115.02 286.288 119.374 286.166C121.043 286.118 122.791 285.95 124.179 285.02C128.525 282.107 126.225 274.578 129.841 270.793C131.132 269.443 132.974 268.811 134.638 267.964C140.626 264.914 144.573 258.758 146.436 252.288C147.604 248.234 150.502 236.586 148.032 232.817C145.8 229.411 135.24 227.034 131.448 226.101Z" fill="#2F2E41"/>
<path d="M206.87 230.003C204.694 229.229 202.389 228.897 200.087 229.028C197.784 229.158 195.529 229.747 193.452 230.761C185.769 234.412 172.181 243.256 172.698 259.996C173.416 283.287 181.319 298.572 181.319 298.572L179.882 345.881L172.698 431.765C172.698 431.765 137.495 460.878 151.145 468.156C164.795 475.435 187.784 433.22 187.784 433.22L205.745 384.456L212.211 337.147C212.211 337.147 222.987 287.654 212.211 265.819C212.211 265.819 224.66 236.582 206.87 230.003Z" fill="#A0616A"/>
<path d="M293.628 306C293.628 306 281.185 358.564 325.102 373.166C369.02 387.767 426.845 412.589 426.845 412.589L434.165 425L451 402.368L448.072 384.847L419.526 376.816C419.526 376.816 366.092 335.933 342.669 333.012L345.597 306H293.628Z" fill="#A0616A"/>
<path d="M411.013 264L426.452 289.215C426.452 289.215 477.448 318.211 490.561 337.784C503.674 357.356 535 378.379 535 378.379L521.158 411C521.158 411 481.819 365.33 465.063 360.981C448.308 356.632 374 297.189 374 297.189L411.013 264Z" fill="#A0616A"/>
<path d="M272.792 174.162C267.112 175.06 261.427 175.958 255.815 177.216C242.776 180.14 230.238 184.985 217.998 190.37C200.87 197.906 184.233 206.526 168.189 216.178C163.862 218.662 159.733 221.481 155.84 224.609C153.25 226.779 150.811 229.266 149.422 232.355C148.539 234.511 147.968 236.783 147.726 239.103C146.598 247.24 146.65 255.637 148.843 263.551C151.035 271.466 155.482 278.885 162.028 283.803C163.76 285.146 165.684 286.218 167.734 286.984C170.492 287.83 173.348 288.311 176.229 288.416C185.411 289.15 195.003 289.824 203.499 286.248C208.899 283.975 213.47 280.134 218.438 277.022C239.478 263.844 266.209 264.405 289.216 255.127C291.452 254.225 293.73 253.173 295.294 251.33C296.478 249.749 297.371 247.968 297.928 246.07C300.837 237.975 303.745 229.88 306.654 221.784C308.497 216.655 310.341 211.522 311.888 206.295C313.506 200.827 314.796 195.267 316.084 189.711C317.193 184.931 318.335 179.923 317.909 174.981C317.28 167.691 315.604 167.395 308.946 168.45C296.896 170.36 284.844 172.264 272.792 174.162Z" fill="#6C63FF"/>
<path d="M184.723 230.003C182.516 229.229 180.177 228.897 177.841 229.028C175.506 229.158 173.218 229.747 171.111 230.761C163.316 234.412 149.532 243.256 150.055 259.996C150.784 283.287 158.801 298.572 158.801 298.572L157.344 345.881L150.055 431.765C150.055 431.765 114.343 460.878 128.191 468.156C142.038 475.435 165.361 433.22 165.361 433.22L183.582 384.456L190.141 337.147C190.141 337.147 201.074 287.654 190.141 265.819C190.141 265.819 202.771 236.582 184.723 230.003Z" fill="#A0616A"/>
<path d="M311.713 168.301C311.713 168.301 376.836 162.429 373.904 202.579C370.972 242.729 348.981 312.08 348.981 312.08L292.536 315C292.536 315 285.206 267.55 295.469 251.489L311.713 168.301Z" fill="#2F2E41"/>
<path d="M357.291 181C357.291 181 373.311 191.228 382.049 211.683C390.786 232.138 417 272.317 417 272.317L374.039 303L342 270.126L357.291 181Z" fill="#2F2E41"/>
<path d="M434.734 408.864C434.734 408.864 420.803 414.008 430.335 424.297C436.19 430.681 441.126 437.854 444.999 445.608C444.999 445.608 442.066 464.714 454.531 463.979C466.996 463.244 472.129 437.524 469.196 428.706C466.263 419.887 462.597 378 462.597 378C462.597 378 436.934 380.205 437.667 383.879C438.4 387.553 442.066 405.925 434.734 408.864Z" fill="#2F2E41"/>
<path d="M521.153 393.992C521.153 393.992 507.984 400.535 511.642 406.351C515.3 412.167 527.006 428.889 527.006 428.889C527.006 428.889 522.616 450.7 535.054 452.881C547.492 455.062 554.808 426.708 552.613 420.892C550.418 415.075 550.418 392.538 550.418 392.538C550.418 392.538 551.15 370 543.834 370C536.517 370 524.08 372.908 524.08 372.908C524.08 372.908 527.006 393.265 521.153 393.992Z" fill="#2F2E41"/>
<path d="M117 431H96V468H117V431Z" fill="#6C63FF"/>
</svg>
