<svg width="650" height="650" viewBox="0 0 650 650" fill="none" xmlns="http://www.w3.org/2000/svg">
<path d="M433.022 275.501C434.586 274.42 435.817 272.922 436.573 271.177C437.329 269.433 437.582 267.511 437.302 265.63C437.021 263.749 436.22 261.985 434.987 260.536C433.755 259.088 432.142 258.014 430.33 257.436L406.98 249.989L394.149 261.108L422.474 276.12C424.12 276.992 425.974 277.396 427.834 277.287C429.694 277.178 431.489 276.56 433.022 275.501Z" fill="#FFB9B9"/>
<path d="M393.756 268.368L409.149 250.519L351.829 187.785L325.438 126.597C323.699 122.565 320.603 119.27 316.688 117.282C312.773 115.295 308.285 114.741 304.004 115.717C301.205 116.355 298.588 117.626 296.356 119.433C294.124 121.239 292.336 123.534 291.129 126.139C289.922 128.744 289.327 131.592 289.392 134.463C289.456 137.334 290.178 140.151 291.501 142.7L325.947 209.049L393.756 268.368Z" fill="#E6E6E6"/>
<path d="M430.53 504.81L427.58 500.231H422.132V498.234H428.669L432.21 503.727L430.53 504.81Z" fill="#3F3D56"/>
<path d="M418.305 500.231H406.823V498.234H418.305V500.231ZM402.995 500.231H391.513V498.234H402.995V500.231ZM387.686 500.231H376.204V498.234H387.686L387.686 500.231ZM372.376 500.231H360.894V498.234H372.376V500.231ZM357.067 500.231H345.585V498.234H357.067V500.231ZM341.757 500.231L331.12 500.222L330.152 500.094L330.415 498.114L331.318 498.234H341.757V500.231ZM326.358 499.589L314.976 498.078L315.239 496.098L326.621 497.609L326.358 499.589ZM311.182 497.573L299.8 496.061L300.063 494.081L311.445 495.594L311.182 497.573ZM296.006 495.556L284.624 494.045L284.887 492.065L296.269 493.577L296.006 495.556ZM280.829 493.541L269.447 492.028L269.711 490.048L281.093 491.561L280.829 493.541Z" fill="#3F3D56"/>
<path d="M260.671 495.763L258.675 495.707L258.878 488.608L265.917 489.544L265.653 491.523L260.811 490.881L260.671 495.763Z" fill="#3F3D56"/>
<path d="M259.144 549.235L257.148 549.179L257.53 535.81L259.526 535.867L259.144 549.235ZM259.653 531.411L257.657 531.354L258.039 517.986L260.035 518.043L259.653 531.411ZM260.162 513.587L258.166 513.53L258.548 500.162L260.544 500.218L260.162 513.587Z" fill="#3F3D56"/>
<path d="M256.818 560.735L257.02 553.635L259.017 553.691L258.877 558.572L263.743 558.193L263.899 560.185L256.818 560.735Z" fill="#3F3D56"/>
<path d="M267.721 559.888L267.566 557.897L279.033 557.005L279.188 558.997L267.721 559.888ZM283.01 558.701L282.855 556.709L294.322 555.818L294.477 557.809L283.01 558.701ZM298.299 557.513L298.144 555.521L309.612 554.63L309.766 556.621L298.299 557.513ZM313.588 556.325L313.434 554.333L324.9 553.442L325.054 555.433L313.588 556.325ZM328.876 555.137L328.722 553.145L340.19 552.254L340.344 554.245L328.876 555.137ZM344.166 553.949L344.012 551.957L355.478 551.066L355.632 553.058L344.166 553.949ZM359.455 552.761L359.3 550.769L370.768 549.878L370.922 551.87L359.455 552.761ZM374.744 551.573L374.59 549.582L386.057 548.69L386.211 550.682L374.744 551.573ZM390.033 550.385L389.879 548.394L401.346 547.502L401.5 549.494L390.033 550.385ZM405.322 549.197L405.168 547.206L416.635 546.314L416.789 548.306L405.322 549.197ZM420.611 548.009L420.457 546.018L431.924 545.126L432.078 547.118L420.611 548.009ZM435.901 546.822L435.746 544.83L447.213 543.939L447.367 545.93L435.901 546.822Z" fill="#3F3D56"/>
<path d="M451.189 545.634L451.035 543.642L455.341 543.308L453.001 539.678L454.681 538.596L458.832 545.039L451.189 545.634Z" fill="#3F3D56"/>
<path d="M450.504 535.804L443.014 524.181L444.694 523.099L452.184 534.721L450.504 535.804ZM440.517 520.307L433.027 508.685L434.707 507.602L442.197 519.225L440.517 520.307Z" fill="#3F3D56"/>
<path d="M413.643 588.615C451.15 588.615 481.555 558.211 481.555 520.704C481.555 483.198 451.15 452.793 413.643 452.793C376.137 452.793 345.732 483.198 345.732 520.704C345.732 558.211 376.137 588.615 413.643 588.615Z" fill="#6C63FF"/>
<path d="M469.57 599.601L370.2 423.332L348.229 445.303L446.101 599.102L469.57 599.601Z" fill="#3F3D56"/>
<path d="M168.464 595.107L391.672 368.903L410.148 405.355L198.425 605.094L168.464 595.107Z" fill="#3F3D56"/>
<path d="M259.345 571.138C284.166 571.138 304.286 551.017 304.286 526.197C304.286 501.377 284.166 481.256 259.345 481.256C234.525 481.256 214.404 501.377 214.404 526.197C214.404 551.017 234.525 571.138 259.345 571.138Z" fill="#3F3D56"/>
<path d="M199.424 539.18C199.159 539.18 198.905 539.286 198.718 539.473C198.53 539.66 198.425 539.914 198.425 540.179V548.168C198.425 548.433 198.53 548.687 198.718 548.874C198.905 549.061 199.159 549.167 199.424 549.167H224.391C224.656 549.167 224.91 549.061 225.097 548.874C225.284 548.687 225.389 548.433 225.39 548.168V540.179C225.389 539.914 225.284 539.66 225.097 539.473C224.91 539.286 224.656 539.18 224.391 539.18H199.424Z" fill="#6C63FF"/>
<path d="M256.849 427.826C256.584 427.826 256.33 427.931 256.143 428.119C255.955 428.306 255.85 428.56 255.85 428.824V436.814C255.85 437.079 255.955 437.333 256.143 437.52C256.33 437.707 256.584 437.812 256.849 437.813H281.816C282.081 437.812 282.335 437.707 282.522 437.52C282.709 437.333 282.814 437.079 282.815 436.814V428.824C282.814 428.56 282.709 428.306 282.522 428.119C282.335 427.931 282.081 427.826 281.816 427.826H256.849Z" fill="#6C63FF"/>
<path d="M378.19 411.347H352.224V391.373L362.211 387.379L378.19 399.363V411.347Z" fill="#3F3D56"/>
<path d="M355.51 382.32L352.801 383.601L357.926 394.435L360.634 393.153L355.51 382.32Z" fill="#3F3D56"/>
<path d="M358.381 369.358C358.19 369.358 358.003 369.413 357.843 369.517L340.203 380.862C339.981 381.005 339.824 381.231 339.768 381.49C339.712 381.749 339.761 382.019 339.904 382.242L344.225 388.962C344.369 389.184 344.595 389.341 344.853 389.397C345.112 389.453 345.383 389.404 345.605 389.261L363.246 377.916C363.468 377.773 363.624 377.547 363.68 377.288C363.737 377.03 363.688 376.759 363.545 376.536L359.223 369.817C359.153 369.706 359.061 369.611 358.953 369.536C358.845 369.461 358.724 369.409 358.595 369.381C358.525 369.366 358.453 369.358 358.381 369.358Z" fill="#6C63FF"/>
<path d="M398.164 409.35L377.691 309.98L401.659 305.985L418.002 386.036C418.704 388.938 418.71 391.965 418.018 394.869C417.327 397.774 415.958 400.473 414.023 402.747C412.088 405.021 409.642 406.805 406.886 407.952C404.13 409.1 401.141 409.579 398.164 409.35Z" fill="#3F3D56"/>
<path d="M473.597 290.401L449.886 288.707C449.569 288.684 449.262 288.586 448.991 288.421C448.719 288.256 448.491 288.029 448.325 287.758C448.159 287.487 448.06 287.18 448.036 286.863C448.013 286.546 448.065 286.228 448.189 285.936L482.63 204.616C482.76 204.31 482.964 204.041 483.224 203.834C483.484 203.626 483.791 203.487 484.118 203.429L507.505 199.252C507.855 199.19 508.215 199.222 508.548 199.345C508.881 199.468 509.175 199.677 509.4 199.951C509.626 200.226 509.774 200.555 509.829 200.906C509.885 201.257 509.846 201.616 509.716 201.946L475.599 289.136C475.444 289.533 475.166 289.87 474.805 290.097C474.445 290.325 474.022 290.431 473.597 290.401Z" fill="#3F3D56"/>
<path d="M453.092 282.516L472.067 284.513L503.027 206.615L483.053 209.611L453.092 282.516Z" fill="#6C63FF"/>
<path d="M246.362 496.236L221.395 521.204L185.442 364.409L205.416 367.405L246.362 496.236Z" fill="#3F3D56"/>
<path d="M217.266 367.167L212.954 365.873C204.48 369.609 195.261 371.344 186.009 370.944C184.011 370.861 182.123 370.006 180.743 368.559C179.362 367.112 178.597 365.185 178.608 363.186C178.608 361.126 179.426 359.151 180.883 357.695C182.339 356.239 184.314 355.42 186.374 355.42H224.042C225.061 355.42 226.039 355.826 226.76 356.547C227.481 357.268 227.886 358.246 227.886 359.265C227.886 360.551 227.586 361.82 227.008 362.969C226.431 364.118 225.593 365.116 224.561 365.884C223.529 366.652 222.332 367.167 221.066 367.39C219.799 367.613 218.498 367.537 217.266 367.167Z" fill="#3F3D56"/>
<path d="M455.857 269.112C454.892 269.11 453.954 269.427 453.187 270.012L422.526 293.458L388.205 297.935C382.296 298.706 378.204 305.134 377.691 310.979L418.091 305.368C423.703 304.827 429.007 302.551 433.265 298.856L458.734 276.829C459.413 276.243 459.896 275.463 460.119 274.595C460.342 273.726 460.293 272.81 459.98 271.969C459.667 271.129 459.104 270.405 458.367 269.894C457.629 269.383 456.754 269.11 455.857 269.112Z" fill="#3F3D56"/>
<path d="M440.876 254.131C439.912 254.13 438.974 254.446 438.207 255.032L407.546 278.478L373.225 282.955C367.315 283.726 363.223 290.154 362.71 295.998L403.11 290.388C408.722 289.847 414.026 287.57 418.285 283.875L443.754 261.848C444.433 261.263 444.916 260.483 445.139 259.614C445.361 258.745 445.313 257.829 445 256.989C444.686 256.149 444.123 255.424 443.386 254.914C442.649 254.403 441.773 254.13 440.876 254.131Z" fill="#3F3D56"/>
<path d="M459.584 314.474C452.444 314.459 445.407 312.769 439.039 309.54C432.671 306.31 427.15 301.632 422.919 295.881L426.945 292.928C430.174 297.339 434.265 301.05 438.968 303.836C443.672 306.622 448.892 308.426 454.313 309.138C459.733 309.85 465.242 309.456 470.506 307.98C475.77 306.503 480.68 303.975 484.939 300.547C489.199 297.12 492.719 292.865 495.288 288.039C497.857 283.213 499.42 277.916 499.885 272.468C500.349 267.021 499.704 261.536 497.989 256.345C496.274 251.154 493.524 246.364 489.906 242.265L493.649 238.959C499.438 245.517 503.211 253.605 504.516 262.254C505.821 270.903 504.601 279.745 501.005 287.718C497.408 295.691 491.586 302.457 484.239 307.203C476.892 311.949 468.331 314.474 459.584 314.474Z" fill="#3F3D56"/>
<path d="M494.538 594.608H141V619.575H494.538V594.608Z" fill="#3F3D56"/>
<path d="M407.898 301.192C409.664 300.486 411.196 299.299 412.321 297.766C413.447 296.234 414.12 294.416 414.265 292.52C414.409 290.624 414.02 288.725 413.14 287.039C412.26 285.353 410.926 283.948 409.288 282.982L388.177 270.531L373.196 278.521L397.476 299.452C398.887 300.669 400.606 301.474 402.444 301.781C404.281 302.088 406.168 301.884 407.898 301.192Z" fill="#FFB9B9"/>
<path d="M242.367 389.376L256.349 397.366L342.684 333.818C345.85 331.654 348.534 328.86 350.569 325.609C352.603 322.359 353.943 318.723 354.505 314.929C355.207 310.134 354.648 305.238 352.883 300.724C351.117 296.21 348.207 292.234 344.437 289.186C325.371 273.701 301.808 259.655 276.822 246.063L239.871 264.04C255.099 295.265 272.004 321.01 296.796 320.965L242.367 389.376Z" fill="#6C63FF"/>
<path d="M236.273 409.719C247.873 421.472 263.149 429.881 280.211 436.664C281.497 437.173 282.909 437.271 284.254 436.945C285.598 436.618 286.808 435.883 287.717 434.84C288.821 433.575 289.408 431.94 289.362 430.262C289.316 428.583 288.64 426.983 287.468 425.78L276.408 414.426L269.725 390.626C255.376 397.719 245.967 396.131 244.112 381.271L235.067 393.606C233.319 395.996 232.48 398.931 232.701 401.885C232.922 404.838 234.188 407.616 236.273 409.719Z" fill="#2F2E41"/>
<path d="M197.426 515.211L218.399 516.21L266.336 269.533L183.944 243.067C175.718 273.822 187.931 324.164 209.411 383.384L197.426 515.211Z" fill="#6C63FF"/>
<path d="M358.715 108.244C376.917 108.244 391.672 93.4884 391.672 75.2868C391.672 57.0852 376.917 42.3299 358.715 42.3299C340.514 42.3299 325.758 57.0852 325.758 75.2868C325.758 93.4884 340.514 108.244 358.715 108.244Z" fill="#FFB9B9"/>
<path d="M298.294 115.734L319.267 130.714L351.225 98.756L335.246 78.7822L298.294 115.734Z" fill="#FFB9B9"/>
<path d="M180.448 245.564C206.313 266.641 234.557 280.495 269.332 274.526C279.841 257.726 287.599 222.336 300.791 207.114C329.599 173.874 343.886 144.246 334.747 117.232C325.862 111.423 326.253 111.433 319.766 92.2645C268.956 101.665 219.766 159.022 180.448 245.564Z" fill="#E6E6E6"/>
<path d="M197.091 535.765C212.019 542.824 229.252 545.482 247.606 546.001C248.989 546.038 250.349 545.646 251.5 544.878C252.65 544.11 253.535 543.004 254.031 541.713C254.634 540.145 254.624 538.408 254.005 536.848C253.386 535.287 252.202 534.016 250.689 533.288L236.405 526.417L221.963 506.354C210.917 517.939 201.535 519.676 194.694 506.354L190.43 521.043C189.608 523.888 189.827 526.933 191.048 529.631C192.268 532.329 194.411 534.504 197.091 535.765Z" fill="#2F2E41"/>
<path d="M371.199 285.512L390.174 271.53L348.229 197.627L336.095 132.104C335.296 127.787 333.01 123.886 329.634 121.078C326.259 118.27 322.006 116.733 317.616 116.733C314.744 116.733 311.911 117.391 309.333 118.656C306.755 119.922 304.502 121.761 302.746 124.033C300.99 126.305 299.778 128.949 299.203 131.763C298.628 134.576 298.705 137.484 299.428 140.263L318.268 212.607L371.199 285.512Z" fill="#E6E6E6"/>
<path d="M275.824 436.814H264.838V496.736H275.824V436.814Z" fill="#3F3D56"/>
<path d="M384.801 65.7284C386.091 67.2749 387.746 68.476 389.617 69.2234C391.487 69.9707 393.514 70.2408 395.515 70.0094C399.482 69.3909 403.013 66.0068 403.267 61.9998C403.486 58.5396 401.452 55.366 399.318 52.6337C394.608 46.6084 389.016 41.3291 382.73 36.9745C379.732 34.8992 376.424 32.9888 372.785 32.7651C370.985 32.6544 369.18 32.9648 367.378 32.8873C364.064 32.7449 360.959 31.3109 357.726 30.5682C354.406 29.8287 350.967 29.8108 347.64 30.5158C344.313 31.2207 341.176 32.632 338.442 34.6542C336.619 36.0474 334.97 37.6548 333.53 39.4419C329.55 44.3108 326.88 50.1167 325.775 56.308C324.037 66.122 326.206 76.8854 321.49 85.6657C327.024 85.1489 331.46 80.9296 336.717 79.1261C340.618 77.8018 344.853 77.8396 348.729 79.2332C349.728 79.7451 350.854 79.9556 351.97 79.8392C352.892 79.5138 353.698 78.9245 354.287 78.1446L364.34 67.2067C366.386 64.9807 368.71 62.6091 371.717 62.3009C373.513 62.2389 375.299 62.5931 376.935 63.3358C380.965 64.8599 384.864 66.7124 388.591 68.8746" fill="#2F2E41"/>
<path d="M365.706 294.001L362.71 295.998L382.684 315.972L394.668 304.986L374.694 289.007L365.706 294.001Z" fill="#3F3D56"/>
</svg>
