<svg width="1895" height="1895" viewBox="0 0 1895 1895" fill="none" xmlns="http://www.w3.org/2000/svg">
<path d="M1056.02 1496.13C1057.59 1495.05 1058.82 1493.56 1059.57 1491.82C1060.33 1490.07 1060.58 1488.16 1060.3 1486.28C1060.02 1484.4 1059.22 1482.64 1057.99 1481.19C1056.76 1479.75 1055.14 1478.67 1053.33 1478.1L1029.98 1470.66L1017.15 1481.76L1045.47 1496.75C1047.12 1497.62 1048.97 1498.02 1050.83 1497.92C1052.69 1497.81 1054.49 1497.19 1056.02 1496.13Z" fill="#FFB9B9"/>
<path d="M1016.76 1489.01L1032.15 1471.19L974.829 1408.56L948.438 1347.46C946.699 1343.44 943.603 1340.15 939.688 1338.16C935.773 1336.18 931.285 1335.63 927.004 1336.6C924.205 1337.24 921.588 1338.51 919.356 1340.31C917.124 1342.11 915.336 1344.41 914.129 1347.01C912.922 1349.61 912.327 1352.45 912.392 1355.32C912.456 1358.18 913.178 1361 914.501 1363.54L948.947 1429.79L1016.76 1489.01Z" fill="#E6E6E6"/>
<path d="M1053.53 1725.08L1050.58 1720.51H1045.13V1718.51H1051.67L1055.21 1724L1053.53 1725.08Z" fill="#3F3D56"/>
<path d="M1041.31 1720.51H1029.82V1718.51H1041.31V1720.51ZM1026 1720.51H1014.51V1718.51H1026V1720.51ZM1010.69 1720.51H999.204V1718.51H1010.69L1010.69 1720.51ZM995.376 1720.51H983.894V1718.51H995.376V1720.51ZM980.067 1720.51H968.585V1718.51H980.067V1720.51ZM964.757 1720.51L954.12 1720.5L953.152 1720.37L953.416 1718.39L954.318 1718.51H964.757V1720.51ZM949.358 1719.87L937.976 1718.36L938.239 1716.38L949.622 1717.89L949.358 1719.87ZM934.182 1717.85L922.8 1716.34L923.063 1714.37L934.445 1715.88L934.182 1717.85ZM919.006 1715.84L907.624 1714.33L907.887 1712.35L919.269 1713.86L919.006 1715.84ZM903.829 1713.83L892.447 1712.32L892.711 1710.34L904.093 1711.85L903.829 1713.83Z" fill="#3F3D56"/>
<path d="M883.671 1716.05L881.675 1715.99L881.878 1708.9L888.917 1709.84L888.653 1711.81L883.811 1711.17L883.671 1716.05Z" fill="#3F3D56"/>
<path d="M882.144 1769.43L880.148 1769.38L880.53 1756.03L882.526 1756.09L882.144 1769.43ZM882.653 1751.64L880.657 1751.58L881.039 1738.23L883.035 1738.29L882.653 1751.64ZM883.163 1733.84L881.166 1733.79L881.548 1720.44L883.544 1720.49L883.163 1733.84Z" fill="#3F3D56"/>
<path d="M879.818 1780.92L880.02 1773.83L882.017 1773.88L881.877 1778.76L886.744 1778.38L886.899 1780.37L879.818 1780.92Z" fill="#3F3D56"/>
<path d="M890.721 1780.07L890.566 1778.08L902.033 1777.19L902.188 1779.18L890.721 1780.07ZM906.01 1778.88L905.855 1776.9L917.322 1776.01L917.477 1777.99L906.01 1778.88ZM921.299 1777.7L921.144 1775.71L932.612 1774.82L932.766 1776.81L921.299 1777.7ZM936.588 1776.51L936.434 1774.52L947.9 1773.63L948.054 1775.62L936.588 1776.51ZM951.876 1775.33L951.722 1773.34L963.19 1772.45L963.344 1774.44L951.876 1775.33ZM967.166 1774.14L967.012 1772.15L978.478 1771.26L978.632 1773.25L967.166 1774.14ZM982.455 1772.95L982.3 1770.97L993.768 1770.08L993.922 1772.06L982.455 1772.95ZM997.744 1771.77L997.59 1769.78L1009.06 1768.89L1009.21 1770.88L997.744 1771.77ZM1013.03 1770.58L1012.88 1768.59L1024.35 1767.7L1024.5 1769.69L1013.03 1770.58ZM1028.32 1769.4L1028.17 1767.41L1039.63 1766.52L1039.79 1768.51L1028.32 1769.4ZM1043.61 1768.21L1043.46 1766.22L1054.92 1765.33L1055.08 1767.32L1043.61 1768.21ZM1058.9 1767.02L1058.75 1765.04L1070.21 1764.15L1070.37 1766.13L1058.9 1767.02Z" fill="#3F3D56"/>
<path d="M1074.19 1765.84L1074.03 1763.85L1078.34 1763.52L1076 1759.89L1077.68 1758.81L1081.83 1765.24L1074.19 1765.84Z" fill="#3F3D56"/>
<path d="M1073.5 1756.02L1066.01 1744.42L1067.69 1743.34L1075.18 1754.94L1073.5 1756.02ZM1063.52 1740.55L1056.03 1728.95L1057.71 1727.87L1065.2 1739.47L1063.52 1740.55Z" fill="#3F3D56"/>
<path d="M1036.64 1808.75C1074.15 1808.75 1104.55 1778.4 1104.55 1740.95C1104.55 1703.5 1074.15 1673.14 1036.64 1673.14C999.137 1673.14 968.732 1703.5 968.732 1740.95C968.732 1778.4 999.137 1808.75 1036.64 1808.75Z" fill="#6C63FF"/>
<path d="M1092.57 1819.72L993.2 1643.73L971.229 1665.67L1069.1 1819.22L1092.57 1819.72Z" fill="#3F3D56"/>
<path d="M791.464 1815.23L1014.67 1589.39L1033.15 1625.78L821.425 1825.2L791.464 1815.23Z" fill="#3F3D56"/>
<path d="M882.345 1791.3C907.166 1791.3 927.287 1771.21 927.287 1746.43C927.287 1721.65 907.166 1701.56 882.345 1701.56C857.525 1701.56 837.404 1721.65 837.404 1746.43C837.404 1771.21 857.525 1791.3 882.345 1791.3Z" fill="#3F3D56"/>
<path d="M822.423 1759.39C822.159 1759.4 821.905 1759.5 821.718 1759.69C821.53 1759.87 821.425 1760.13 821.425 1760.39V1768.37C821.425 1768.63 821.53 1768.89 821.718 1769.07C821.905 1769.26 822.159 1769.37 822.423 1769.37H847.391C847.656 1769.37 847.91 1769.26 848.097 1769.07C848.284 1768.89 848.389 1768.63 848.39 1768.37V1760.39C848.389 1760.13 848.284 1759.87 848.097 1759.69C847.91 1759.5 847.656 1759.4 847.391 1759.39H822.423Z" fill="#6C63FF"/>
<path d="M879.849 1648.22C879.584 1648.22 879.33 1648.32 879.143 1648.51C878.955 1648.7 878.85 1648.95 878.85 1649.21V1657.19C878.85 1657.45 878.955 1657.71 879.143 1657.9C879.33 1658.08 879.584 1658.19 879.849 1658.19H904.816C905.081 1658.19 905.335 1658.08 905.522 1657.9C905.709 1657.71 905.814 1657.45 905.815 1657.19V1649.21C905.814 1648.95 905.709 1648.7 905.522 1648.51C905.335 1648.32 905.081 1648.22 904.816 1648.22H879.849Z" fill="#6C63FF"/>
<path d="M1001.19 1631.76H975.224V1611.82L985.211 1607.83L1001.19 1619.8V1631.76Z" fill="#3F3D56"/>
<path d="M978.51 1602.78L975.802 1604.06L980.926 1614.88L983.634 1613.6L978.51 1602.78Z" fill="#3F3D56"/>
<path d="M981.381 1589.84C981.19 1589.84 981.004 1589.9 980.843 1590L963.203 1601.33C962.981 1601.47 962.824 1601.7 962.768 1601.95C962.712 1602.21 962.761 1602.48 962.904 1602.7L967.226 1609.41C967.369 1609.64 967.595 1609.79 967.853 1609.85C968.112 1609.9 968.383 1609.86 968.605 1609.71L986.246 1598.39C986.468 1598.24 986.624 1598.02 986.681 1597.76C986.737 1597.5 986.688 1597.23 986.545 1597.01L982.223 1590.3C982.153 1590.19 982.061 1590.09 981.953 1590.02C981.845 1589.94 981.724 1589.89 981.595 1589.86C981.525 1589.85 981.453 1589.84 981.381 1589.84Z" fill="#6C63FF"/>
<path d="M1021.16 1629.77L1000.69 1530.56L1024.66 1526.57L1041 1606.49C1041.7 1609.39 1041.71 1612.41 1041.02 1615.31C1040.33 1618.21 1038.96 1620.91 1037.02 1623.18C1035.09 1625.45 1032.64 1627.23 1029.89 1628.37C1027.13 1629.52 1024.14 1630 1021.16 1629.77Z" fill="#3F3D56"/>
<path d="M1096.6 1511.01L1072.89 1509.32C1072.57 1509.29 1072.26 1509.2 1071.99 1509.03C1071.72 1508.87 1071.49 1508.64 1071.32 1508.37C1071.16 1508.1 1071.06 1507.79 1071.04 1507.48C1071.01 1507.16 1071.07 1506.84 1071.19 1506.55L1105.63 1425.36C1105.76 1425.05 1105.96 1424.79 1106.22 1424.58C1106.48 1424.37 1106.79 1424.23 1107.12 1424.17L1130.51 1420C1130.85 1419.94 1131.21 1419.97 1131.55 1420.1C1131.88 1420.22 1132.18 1420.43 1132.4 1420.7C1132.63 1420.98 1132.77 1421.31 1132.83 1421.66C1132.88 1422.01 1132.85 1422.36 1132.72 1422.69L1098.6 1509.75C1098.44 1510.14 1098.17 1510.48 1097.81 1510.71C1097.45 1510.93 1097.02 1511.04 1096.6 1511.01Z" fill="#3F3D56"/>
<path d="M1076.09 1503.14L1095.07 1505.13L1126.03 1427.36L1106.05 1430.35L1076.09 1503.14Z" fill="#6C63FF"/>
<path d="M869.362 1716.52L844.395 1741.45L808.442 1584.9L828.416 1587.89L869.362 1716.52Z" fill="#3F3D56"/>
<path d="M840.266 1587.65L835.954 1586.36C827.48 1590.09 818.261 1591.82 809.009 1591.42C807.011 1591.34 805.123 1590.49 803.743 1589.04C802.362 1587.6 801.597 1585.68 801.608 1583.68C801.608 1581.62 802.426 1579.65 803.883 1578.2C805.339 1576.74 807.314 1575.93 809.373 1575.93H847.041C848.061 1575.93 849.039 1576.33 849.76 1577.05C850.481 1577.77 850.886 1578.75 850.886 1579.76C850.886 1581.05 850.586 1582.31 850.008 1583.46C849.431 1584.61 848.593 1585.61 847.561 1586.37C846.529 1587.14 845.332 1587.65 844.066 1587.88C842.799 1588.1 841.498 1588.02 840.266 1587.65Z" fill="#3F3D56"/>
<path d="M1078.86 1489.75C1077.89 1489.75 1076.95 1490.07 1076.19 1490.65L1045.53 1514.06L1011.2 1518.53C1005.3 1519.3 1001.2 1525.72 1000.69 1531.55L1041.09 1525.95C1046.7 1525.41 1052.01 1523.14 1056.27 1519.45L1081.73 1497.46C1082.41 1496.87 1082.9 1496.09 1083.12 1495.23C1083.34 1494.36 1083.29 1493.45 1082.98 1492.61C1082.67 1491.77 1082.1 1491.04 1081.37 1490.53C1080.63 1490.02 1079.75 1489.75 1078.86 1489.75Z" fill="#3F3D56"/>
<path d="M1063.88 1474.8C1062.91 1474.8 1061.97 1475.11 1061.21 1475.7L1030.55 1499.1L996.225 1503.57C990.315 1504.34 986.223 1510.76 985.71 1516.6L1026.11 1511C1031.72 1510.46 1037.03 1508.18 1041.28 1504.49L1066.75 1482.5C1067.43 1481.92 1067.92 1481.14 1068.14 1480.27C1068.36 1479.4 1068.31 1478.49 1068 1477.65C1067.69 1476.81 1067.12 1476.09 1066.39 1475.58C1065.65 1475.07 1064.77 1474.79 1063.88 1474.8Z" fill="#3F3D56"/>
<path d="M1082.58 1535.04C1075.44 1535.03 1068.41 1533.34 1062.04 1530.12C1055.67 1526.89 1050.15 1522.22 1045.92 1516.48L1049.94 1513.53C1053.17 1517.94 1057.26 1521.64 1061.97 1524.42C1066.67 1527.2 1071.89 1529.01 1077.31 1529.72C1082.73 1530.43 1088.24 1530.03 1093.51 1528.56C1098.77 1527.09 1103.68 1524.56 1107.94 1521.14C1112.2 1517.72 1115.72 1513.47 1118.29 1508.65C1120.86 1503.83 1122.42 1498.54 1122.88 1493.1C1123.35 1487.67 1122.7 1482.19 1120.99 1477.01C1119.27 1471.82 1116.52 1467.04 1112.91 1462.95L1116.65 1459.65C1122.44 1466.2 1126.21 1474.27 1127.52 1482.91C1128.82 1491.54 1127.6 1500.37 1124 1508.33C1120.41 1516.29 1114.59 1523.05 1107.24 1527.78C1099.89 1532.52 1091.33 1535.04 1082.58 1535.04Z" fill="#3F3D56"/>
<path d="M1117.54 1814.73H764V1839.66H1117.54V1814.73Z" fill="#3F3D56"/>
<path d="M1030.9 1521.78C1032.66 1521.08 1034.2 1519.89 1035.32 1518.36C1036.45 1516.83 1037.12 1515.02 1037.26 1513.12C1037.41 1511.23 1037.02 1509.34 1036.14 1507.65C1035.26 1505.97 1033.93 1504.57 1032.29 1503.6L1011.18 1491.17L996.196 1499.15L1020.48 1520.05C1021.89 1521.26 1023.61 1522.06 1025.44 1522.37C1027.28 1522.68 1029.17 1522.47 1030.9 1521.78Z" fill="#FFB9B9"/>
<path d="M865.367 1609.83L879.349 1617.8L965.684 1554.36C968.85 1552.2 971.534 1549.41 973.568 1546.16C975.603 1542.92 976.943 1539.29 977.505 1535.5C978.207 1530.71 977.648 1525.82 975.883 1521.32C974.117 1516.81 971.207 1512.84 967.437 1509.8C948.371 1494.34 924.807 1480.31 899.822 1466.74L862.871 1484.69C878.099 1515.87 895.004 1541.57 919.796 1541.53L865.367 1609.83Z" fill="#6C63FF"/>
<path d="M859.273 1630.14C870.873 1641.87 886.149 1650.27 903.211 1657.04C904.497 1657.55 905.909 1657.65 907.254 1657.32C908.598 1657 909.808 1656.26 910.717 1655.22C911.821 1653.96 912.408 1652.32 912.362 1650.65C912.316 1648.97 911.64 1647.38 910.468 1646.17L899.408 1634.84L892.725 1611.08C878.376 1618.16 868.967 1616.57 867.112 1601.74L858.067 1614.05C856.319 1616.44 855.48 1619.37 855.701 1622.32C855.922 1625.26 857.188 1628.04 859.273 1630.14Z" fill="#2F2E41"/>
<path d="M820.426 1735.46L841.399 1736.46L889.336 1490.17L806.944 1463.75C798.718 1494.46 810.931 1544.72 832.411 1603.84L820.426 1735.46Z" fill="#6C63FF"/>
<path d="M981.715 1329.14C999.917 1329.14 1014.67 1314.41 1014.67 1296.23C1014.67 1278.06 999.917 1263.33 981.715 1263.33C963.514 1263.33 948.758 1278.06 948.758 1296.23C948.758 1314.41 963.514 1329.14 981.715 1329.14Z" fill="#FFB9B9"/>
<path d="M921.294 1336.62L942.267 1351.57L974.225 1319.67L958.246 1299.72L921.294 1336.62Z" fill="#FFB9B9"/>
<path d="M803.448 1466.24C829.313 1487.29 857.557 1501.12 892.332 1495.16C902.841 1478.39 910.599 1443.05 923.791 1427.85C952.599 1394.67 966.886 1365.09 957.747 1338.11C948.862 1332.31 949.253 1332.32 942.766 1313.19C891.956 1322.57 842.766 1379.84 803.448 1466.24Z" fill="#E6E6E6"/>
<path d="M820.091 1755.98C835.019 1763.03 852.252 1765.69 870.606 1766.2C871.989 1766.24 873.349 1765.85 874.5 1765.08C875.65 1764.32 876.535 1763.21 877.031 1761.92C877.634 1760.36 877.624 1758.62 877.005 1757.07C876.386 1755.51 875.202 1754.24 873.689 1753.51L859.405 1746.65L844.963 1726.62C833.917 1738.19 824.535 1739.92 817.694 1726.62L813.43 1741.29C812.608 1744.13 812.827 1747.17 814.048 1749.86C815.268 1752.55 817.411 1754.73 820.091 1755.98Z" fill="#2F2E41"/>
<path d="M994.199 1506.13L1013.17 1492.17L971.229 1418.38L959.095 1352.96C958.296 1348.65 956.01 1344.76 952.634 1341.95C949.258 1339.15 945.006 1337.61 940.616 1337.61C937.744 1337.61 934.911 1338.27 932.333 1339.54C929.755 1340.8 927.502 1342.64 925.746 1344.9C923.99 1347.17 922.778 1349.81 922.203 1352.62C921.627 1355.43 921.705 1358.33 922.428 1361.11L941.268 1433.34L994.199 1506.13Z" fill="#E6E6E6"/>
<path d="M898.824 1657.19H887.838V1717.02H898.824V1657.19Z" fill="#3F3D56"/>
<path d="M1007.8 1286.69C1009.09 1288.24 1010.75 1289.43 1012.62 1290.18C1014.49 1290.93 1016.51 1291.2 1018.51 1290.97C1022.48 1290.35 1026.01 1286.97 1026.27 1282.97C1026.49 1279.51 1024.45 1276.35 1022.32 1273.62C1017.61 1267.6 1012.02 1262.33 1005.73 1257.98C1002.73 1255.91 999.424 1254 995.785 1253.78C993.985 1253.67 992.18 1253.98 990.378 1253.9C987.064 1253.76 983.959 1252.33 980.726 1251.59C977.406 1250.85 973.967 1250.83 970.64 1251.53C967.313 1252.24 964.176 1253.65 961.442 1255.67C959.619 1257.06 957.97 1258.66 956.53 1260.45C952.55 1265.31 949.88 1271.1 948.775 1277.29C947.037 1287.08 949.206 1297.83 944.49 1306.6C950.024 1306.08 954.46 1301.87 959.717 1300.07C963.618 1298.75 967.853 1298.78 971.729 1300.17C972.728 1300.69 973.854 1300.9 974.97 1300.78C975.892 1300.46 976.698 1299.87 977.287 1299.09L987.34 1288.17C989.386 1285.94 991.71 1283.58 994.717 1283.27C996.513 1283.21 998.298 1283.56 999.935 1284.3C1003.96 1285.82 1007.86 1287.67 1011.59 1289.83" fill="#2F2E41"/>
<path d="M988.706 1514.6L985.71 1516.6L1005.68 1536.54L1017.67 1525.57L997.694 1509.62L988.706 1514.6Z" fill="#3F3D56"/>
<path d="M650 1044.35H51V1051.34H650V1044.35Z" fill="#3F3D56"/>
<path d="M650 1100.26H51V1107.25H650V1100.26Z" fill="#3F3D56"/>
<path d="M586 1050.34C586 1050.34 576.732 996.966 505 997.424L586 1050.34Z" fill="#3F3D56"/>
<path d="M151 919.544C167.569 919.544 181 906.134 181 889.592C181 873.049 167.569 859.639 151 859.639C134.431 859.639 121 873.049 121 889.592C121 906.134 134.431 919.544 151 919.544Z" fill="#A0616A"/>
<path d="M156.448 852.751C150.722 851.344 144.564 851.109 139.017 853.109C133.303 855.168 128.6 859.474 125.141 864.469C121.682 869.464 119.359 875.149 117.278 880.859C116.064 883.972 115.124 887.185 114.47 890.462C113.724 894.831 113.867 899.305 114.892 903.616C115.917 907.927 117.802 911.987 120.434 915.551C119.558 913.237 121.765 910.714 124.187 910.213C126.608 909.712 129.074 910.56 131.462 911.202C135.67 912.331 140.02 912.843 144.374 912.721C146.043 912.673 147.791 912.505 149.179 911.577C153.525 908.668 151.225 901.152 154.841 897.373C156.132 896.024 157.974 895.393 159.638 894.547C165.626 891.502 169.573 885.356 171.436 878.897C172.604 874.849 175.502 863.22 173.032 859.457C170.8 856.056 160.24 853.683 156.448 852.751Z" fill="#2F2E41"/>
<path d="M231.87 856.647C229.694 855.874 227.389 855.543 225.087 855.673C222.784 855.803 220.529 856.391 218.452 857.404C210.769 861.048 197.181 869.879 197.698 886.593C198.416 909.847 206.319 925.107 206.319 925.107L204.882 972.341L197.698 1058.09C197.698 1058.09 162.495 1087.16 176.145 1094.42C189.795 1101.69 212.784 1059.54 212.784 1059.54L230.745 1010.86L237.211 963.621C237.211 963.621 247.987 914.207 237.211 892.406C237.211 892.406 249.66 863.215 231.87 856.647Z" fill="#A0616A"/>
<path d="M318.628 932.524C318.628 932.524 306.185 985.005 350.102 999.583C394.02 1014.16 451.845 1038.94 451.845 1038.94L459.165 1051.34L476 1028.74L473.072 1011.25L444.526 1003.23C444.526 1003.23 391.092 962.409 367.669 959.493L370.597 932.524H318.628Z" fill="#A0616A"/>
<path d="M436.013 890.59L451.452 915.765C451.452 915.765 502.448 944.716 515.561 964.257C528.674 983.799 560 1004.79 560 1004.79L546.158 1037.36C546.158 1037.36 506.819 991.76 490.063 987.418C473.308 983.075 399 923.726 399 923.726L436.013 890.59Z" fill="#A0616A"/>
<path d="M297.792 800.894C292.112 801.79 286.427 802.687 280.815 803.944C267.776 806.863 255.238 811.7 242.998 817.076C225.87 824.601 209.233 833.207 193.189 842.843C188.862 845.324 184.733 848.139 180.84 851.262C178.25 853.428 175.811 855.911 174.422 858.995C173.539 861.148 172.968 863.417 172.726 865.732C171.598 873.856 171.65 882.24 173.843 890.142C176.035 898.044 180.482 905.452 187.028 910.361C188.76 911.702 190.684 912.773 192.734 913.538C195.492 914.382 198.348 914.863 201.229 914.968C210.411 915.701 220.003 916.373 228.499 912.802C233.899 910.534 238.47 906.698 243.438 903.591C264.478 890.434 291.209 890.994 314.216 881.731C316.452 880.83 318.73 879.78 320.294 877.94C321.478 876.362 322.371 874.583 322.928 872.689C325.837 864.606 328.745 856.524 331.654 848.441C333.497 843.32 335.341 838.195 336.888 832.976C338.506 827.517 339.796 821.966 341.084 816.419C342.193 811.646 343.335 806.646 342.909 801.712C342.28 794.433 340.604 794.138 333.946 795.191C321.896 797.098 309.844 798.999 297.792 800.894Z" fill="#6C63FF"/>
<path d="M209.723 856.647C207.516 855.874 205.177 855.543 202.841 855.673C200.506 855.803 198.218 856.391 196.111 857.404C188.316 861.048 174.532 869.879 175.055 886.593C175.784 909.847 183.801 925.107 183.801 925.107L182.344 972.341L175.055 1058.09C175.055 1058.09 139.343 1087.16 153.191 1094.42C167.038 1101.69 190.361 1059.54 190.361 1059.54L208.582 1010.86L215.141 963.621C215.141 963.621 226.074 914.207 215.141 892.406C215.141 892.406 227.771 863.215 209.723 856.647Z" fill="#A0616A"/>
<path d="M336.713 795.042C336.713 795.042 401.836 789.179 398.904 829.266C395.972 869.353 373.981 938.594 373.981 938.594L317.536 941.509C317.536 941.509 310.206 894.134 320.469 878.099L336.713 795.042Z" fill="#2F2E41"/>
<path d="M382.291 807.721C382.291 807.721 398.311 817.933 407.049 838.355C415.786 858.778 442 898.894 442 898.894L399.039 929.528L367 896.706L382.291 807.721Z" fill="#2F2E41"/>
<path d="M459.734 1035.23C459.734 1035.23 445.803 1040.36 455.335 1050.63C461.19 1057.01 466.126 1064.17 469.999 1071.91C469.999 1071.91 467.066 1090.99 479.531 1090.25C491.996 1089.52 497.129 1063.84 494.196 1055.04C491.263 1046.23 487.597 1004.41 487.597 1004.41C487.597 1004.41 461.934 1006.61 462.667 1010.28C463.4 1013.95 467.066 1032.29 459.734 1035.23Z" fill="#2F2E41"/>
<path d="M546.153 1020.38C546.153 1020.38 532.984 1026.91 536.642 1032.72C540.3 1038.52 552.006 1055.22 552.006 1055.22C552.006 1055.22 547.616 1076.99 560.054 1079.17C572.492 1081.35 579.808 1053.04 577.613 1047.23C575.418 1041.43 575.418 1018.92 575.418 1018.92C575.418 1018.92 576.15 996.423 568.834 996.423C561.517 996.423 549.08 999.326 549.08 999.326C549.08 999.326 552.006 1019.65 546.153 1020.38Z" fill="#2F2E41"/>
<path d="M142 1057.33H121V1094.27H142V1057.33Z" fill="#6C63FF"/>
<path d="M1511.4 1116.09C1511.4 1116.09 1521.81 1099.03 1535.18 1109.12C1548.55 1119.2 1573.3 1136.21 1573.3 1136.21C1573.3 1136.21 1578.37 1147.09 1565.25 1143.01C1552.13 1138.92 1509.29 1132.34 1509.29 1132.34L1511.4 1116.09Z" fill="#FEB8B8"/>
<path d="M1253.45 1030.75C1256.77 1004.11 1273.3 977.866 1298.75 969.198C1288.71 996.614 1288.72 1026.69 1298.75 1054.1C1302.66 1064.66 1308.11 1076 1304.44 1086.64C1302.15 1093.26 1296.55 1098.33 1290.29 1101.5C1284.04 1104.66 1277.09 1106.17 1270.23 1107.65L1268.88 1108.77C1258 1084.23 1250.14 1057.38 1253.45 1030.75Z" fill="#F0F0F0"/>
<path d="M1299 969.702C1284.18 986.277 1274.97 1007.09 1272.68 1029.19C1272.1 1033.94 1272.28 1038.75 1273.2 1043.44C1274.25 1047.99 1276.49 1052.17 1279.7 1055.55C1282.63 1058.77 1286.01 1061.72 1288.1 1065.59C1289.15 1067.59 1289.76 1069.78 1289.89 1072.03C1290.03 1074.28 1289.68 1076.53 1288.88 1078.64C1287.03 1083.94 1283.38 1088.26 1279.67 1092.37C1275.54 1096.92 1271.18 1101.59 1269.43 1107.63C1269.22 1108.36 1268.09 1107.99 1268.3 1107.26C1271.36 1096.75 1281.57 1090.78 1286.44 1081.32C1288.72 1076.9 1289.67 1071.77 1287.54 1067.11C1285.68 1063.04 1282.2 1059.99 1279.21 1056.76C1276.02 1053.51 1273.69 1049.52 1272.41 1045.16C1271.25 1040.53 1270.89 1035.73 1271.34 1030.98C1272.19 1020.26 1274.72 1009.74 1278.84 999.814C1283.48 988.453 1290.03 977.969 1298.22 968.814C1298.72 968.248 1299.5 969.139 1299 969.702Z" fill="white"/>
<path d="M1273 1022.03C1269.34 1021.14 1266.11 1018.99 1263.9 1015.94C1261.68 1012.9 1260.62 1009.17 1260.91 1005.42C1260.97 1004.66 1262.15 1004.72 1262.09 1005.48C1261.82 1008.97 1262.81 1012.45 1264.88 1015.27C1266.94 1018.1 1269.96 1020.1 1273.37 1020.91C1274.11 1021.08 1273.74 1022.21 1273 1022.03Z" fill="white"/>
<path d="M1278 1054.12C1284.61 1050.18 1289.5 1043.89 1291.67 1036.51C1291.89 1035.78 1293.01 1036.15 1292.8 1036.88C1290.52 1044.56 1285.42 1051.09 1278.53 1055.17C1277.88 1055.56 1277.35 1054.5 1278 1054.12Z" fill="white"/>
<path d="M1284.58 989.574C1285.93 990.212 1287.41 990.506 1288.9 990.431C1290.38 990.356 1291.83 989.913 1293.1 989.142C1293.75 988.745 1294.28 989.804 1293.63 990.198C1292.22 991.044 1290.63 991.531 1288.98 991.618C1287.34 991.705 1285.7 991.389 1284.21 990.697C1284.06 990.644 1283.94 990.537 1283.87 990.398C1283.8 990.259 1283.79 990.099 1283.83 989.95C1283.88 989.801 1283.99 989.679 1284.13 989.608C1284.27 989.538 1284.43 989.525 1284.58 989.574Z" fill="white"/>
<path d="M1376.3 1016.77C1375.9 1017.03 1375.5 1017.29 1375.1 1017.56C1369.74 1021.08 1364.68 1025.03 1359.96 1029.36C1359.59 1029.69 1359.22 1030.03 1358.86 1030.37C1347.61 1040.94 1338.41 1053.5 1331.75 1067.42C1329.11 1072.96 1326.89 1078.7 1325.11 1084.58C1322.66 1092.69 1320.65 1101.69 1315.8 1108.33C1315.3 1109.03 1314.76 1109.69 1314.18 1110.32H1270.35C1270.25 1110.28 1270.15 1110.24 1270.05 1110.19L1268.3 1110.27C1268.37 1109.96 1268.45 1109.64 1268.52 1109.33C1268.56 1109.15 1268.61 1108.97 1268.65 1108.79C1268.68 1108.67 1268.71 1108.55 1268.73 1108.44C1268.74 1108.4 1268.75 1108.36 1268.76 1108.33C1268.78 1108.22 1268.81 1108.12 1268.83 1108.02C1269.27 1106.23 1269.72 1104.44 1270.19 1102.66C1270.19 1102.65 1270.19 1102.65 1270.2 1102.64C1273.79 1089.03 1278.55 1075.6 1285.2 1063.32C1285.4 1062.95 1285.6 1062.57 1285.82 1062.2C1288.85 1056.68 1292.32 1051.42 1296.21 1046.47C1298.35 1043.76 1300.62 1041.16 1303.02 1038.69C1309.23 1032.3 1316.42 1026.93 1324.3 1022.77C1340.02 1014.49 1358.22 1011.31 1375.02 1016.37C1375.45 1016.5 1375.87 1016.63 1376.3 1016.77Z" fill="#F0F0F0"/>
<path d="M1376.2 1017.33C1354.38 1021.66 1334.47 1032.74 1319.31 1049.01C1315.99 1052.45 1313.23 1056.4 1311.13 1060.7C1309.23 1064.95 1308.5 1069.64 1309.02 1074.28C1309.43 1078.61 1310.34 1082.99 1309.68 1087.34C1309.31 1089.56 1308.47 1091.68 1307.22 1093.56C1305.97 1095.43 1304.34 1097.03 1302.43 1098.23C1297.76 1101.35 1292.24 1102.61 1286.8 1103.65C1280.75 1104.81 1274.46 1105.91 1269.42 1109.68C1268.81 1110.14 1268.13 1109.16 1268.74 1108.71C1277.52 1102.15 1289.27 1103.53 1298.87 1098.9C1303.35 1096.74 1307.2 1093.22 1308.31 1088.22C1309.28 1083.84 1308.34 1079.32 1307.9 1074.94C1307.32 1070.43 1307.86 1065.85 1309.47 1061.59C1311.33 1057.19 1313.94 1053.15 1317.17 1049.63C1324.31 1041.58 1332.67 1034.71 1341.95 1029.25C1352.5 1022.97 1364.06 1018.54 1376.11 1016.15C1376.86 1016 1376.94 1017.18 1376.2 1017.33Z" fill="white"/>
<path d="M1323.89 1043.48C1321.5 1040.57 1320.22 1036.91 1320.29 1033.15C1320.36 1029.39 1321.76 1025.77 1324.25 1022.95C1324.76 1022.38 1325.67 1023.14 1325.16 1023.71C1322.84 1026.33 1321.53 1029.7 1321.47 1033.2C1321.42 1036.71 1322.62 1040.11 1324.86 1042.81C1325.35 1043.39 1324.37 1044.07 1323.89 1043.48Z" fill="white"/>
<path d="M1308.53 1072.11C1316.19 1072.93 1323.88 1070.85 1330.06 1066.27C1330.68 1065.82 1331.35 1066.79 1330.74 1067.24C1324.29 1072 1316.29 1074.15 1308.32 1073.27C1307.56 1073.19 1307.78 1072.02 1308.53 1072.11Z" fill="white"/>
<path d="M1352.71 1024.53C1353.4 1025.85 1354.4 1026.97 1355.63 1027.81C1356.87 1028.64 1358.29 1029.15 1359.77 1029.3C1360.53 1029.38 1360.31 1030.54 1359.56 1030.47C1357.92 1030.3 1356.35 1029.72 1354.99 1028.81C1353.63 1027.89 1352.51 1026.65 1351.73 1025.2C1351.65 1025.07 1351.62 1024.91 1351.64 1024.76C1351.67 1024.61 1351.76 1024.47 1351.88 1024.38C1352.01 1024.29 1352.17 1024.26 1352.32 1024.28C1352.48 1024.31 1352.62 1024.4 1352.71 1024.53Z" fill="white"/>
<path d="M1726.95 1068.34C1728.23 1058.01 1734.64 1047.84 1744.5 1044.48C1740.61 1055.11 1740.61 1066.76 1744.5 1077.39C1746.02 1081.48 1748.13 1085.87 1746.7 1090C1745.68 1092.55 1743.72 1094.61 1741.22 1095.76C1738.74 1096.88 1736.13 1097.68 1733.45 1098.14L1732.93 1098.57C1728.71 1089.06 1725.66 1078.66 1726.95 1068.34Z" fill="#F0F0F0"/>
<path d="M1744.6 1044.68C1738.86 1051.1 1735.29 1059.17 1734.4 1067.73C1734.17 1069.57 1734.24 1071.44 1734.6 1073.26C1735 1075.02 1735.87 1076.64 1737.12 1077.95C1738.36 1079.11 1739.45 1080.42 1740.37 1081.84C1740.78 1082.61 1741.01 1083.46 1741.07 1084.34C1741.12 1085.21 1740.99 1086.08 1740.68 1086.9C1739.86 1088.89 1738.64 1090.7 1737.1 1092.22C1735.51 1093.98 1733.82 1095.79 1733.14 1098.13C1733.05 1098.42 1732.62 1098.27 1732.7 1097.99C1733.88 1093.92 1737.84 1091.6 1739.73 1087.94C1740.22 1087.11 1740.51 1086.19 1740.58 1085.23C1740.66 1084.28 1740.51 1083.32 1740.16 1082.43C1739.3 1080.93 1738.21 1079.58 1736.93 1078.42C1735.69 1077.16 1734.79 1075.61 1734.29 1073.92C1733.84 1072.13 1733.7 1070.27 1733.88 1068.43C1734.21 1064.27 1735.19 1060.2 1736.78 1056.35C1738.58 1051.95 1741.12 1047.88 1744.29 1044.33C1744.49 1044.11 1744.79 1044.46 1744.6 1044.68Z" fill="white"/>
<path d="M1734.52 1064.96C1733.1 1064.62 1731.85 1063.78 1730.99 1062.6C1730.13 1061.42 1729.72 1059.97 1729.83 1058.52C1729.86 1058.23 1730.32 1058.25 1730.29 1058.54C1730.19 1059.9 1730.57 1061.24 1731.37 1062.34C1732.17 1063.44 1733.34 1064.21 1734.66 1064.52C1734.95 1064.59 1734.81 1065.03 1734.52 1064.96Z" fill="white"/>
<path d="M1736.46 1077.39C1739.02 1075.87 1740.91 1073.43 1741.76 1070.57C1741.84 1070.29 1742.28 1070.43 1742.19 1070.72C1741.31 1073.69 1739.34 1076.22 1736.67 1077.8C1736.41 1077.95 1736.21 1077.54 1736.46 1077.39Z" fill="white"/>
<path d="M1739.01 1052.38C1739.53 1052.63 1740.11 1052.74 1740.68 1052.71C1741.26 1052.68 1741.82 1052.51 1742.31 1052.21C1742.56 1052.06 1742.77 1052.47 1742.52 1052.62C1741.97 1052.95 1741.35 1053.14 1740.72 1053.17C1740.08 1053.21 1739.44 1053.08 1738.87 1052.82C1738.81 1052.79 1738.76 1052.75 1738.73 1052.7C1738.71 1052.65 1738.7 1052.58 1738.72 1052.53C1738.74 1052.47 1738.78 1052.42 1738.83 1052.39C1738.89 1052.37 1738.95 1052.36 1739.01 1052.38Z" fill="white"/>
<path d="M1774.56 1062.92C1774.4 1063.02 1774.25 1063.12 1774.09 1063.23C1772.01 1064.59 1770.05 1066.12 1768.22 1067.8C1768.08 1067.93 1767.94 1068.06 1767.8 1068.19C1763.43 1072.29 1759.87 1077.16 1757.29 1082.55C1756.26 1084.7 1755.4 1086.92 1754.72 1089.2C1753.77 1092.34 1752.99 1095.83 1751.11 1098.4C1750.92 1098.67 1750.71 1098.93 1750.48 1099.18H1733.49C1733.46 1099.16 1733.42 1099.14 1733.38 1099.12L1732.7 1099.15C1732.73 1099.03 1732.76 1098.91 1732.79 1098.79C1732.8 1098.72 1732.82 1098.65 1732.84 1098.58C1732.85 1098.53 1732.86 1098.49 1732.87 1098.45C1732.87 1098.43 1732.87 1098.41 1732.88 1098.4C1732.89 1098.36 1732.9 1098.32 1732.91 1098.28C1733.08 1097.59 1733.25 1096.9 1733.43 1096.21L1733.44 1096.2C1734.76 1090.91 1736.71 1085.79 1739.25 1080.96C1739.33 1080.82 1739.4 1080.67 1739.49 1080.53C1740.66 1078.39 1742.01 1076.35 1743.52 1074.43C1744.34 1073.38 1745.23 1072.37 1746.16 1071.41C1748.56 1068.94 1751.35 1066.86 1754.4 1065.25C1760.49 1062.03 1767.55 1060.8 1774.06 1062.77C1774.23 1062.82 1774.39 1062.87 1774.56 1062.92Z" fill="#F0F0F0"/>
<path d="M1774.52 1063.14C1766.06 1064.81 1758.34 1069.11 1752.47 1075.41C1751.18 1076.75 1750.11 1078.28 1749.3 1079.94C1748.56 1081.59 1748.28 1083.41 1748.48 1085.21C1748.77 1086.88 1748.86 1088.58 1748.74 1090.27C1748.59 1091.13 1748.27 1091.95 1747.78 1092.68C1747.3 1093.41 1746.67 1094.02 1745.93 1094.49C1744.07 1095.59 1742.01 1096.3 1739.87 1096.59C1737.53 1097.04 1735.09 1097.47 1733.13 1098.93C1732.9 1099.1 1732.64 1098.73 1732.87 1098.55C1736.27 1096.01 1740.83 1096.54 1744.55 1094.75C1745.43 1094.38 1746.22 1093.82 1746.86 1093.1C1747.49 1092.39 1747.95 1091.53 1748.21 1090.61C1748.43 1088.9 1748.37 1087.16 1748.05 1085.46C1747.82 1083.72 1748.03 1081.94 1748.65 1080.29C1749.38 1078.59 1750.39 1077.02 1751.64 1075.65C1754.4 1072.54 1757.65 1069.87 1761.24 1067.76C1765.33 1065.32 1769.81 1063.61 1774.48 1062.68C1774.77 1062.62 1774.8 1063.08 1774.52 1063.14Z" fill="white"/>
<path d="M1754.24 1073.27C1753.32 1072.14 1752.82 1070.73 1752.85 1069.27C1752.87 1067.81 1753.42 1066.41 1754.38 1065.31C1754.58 1065.09 1754.93 1065.39 1754.74 1065.61C1753.84 1066.63 1753.33 1067.93 1753.31 1069.29C1753.29 1070.65 1753.75 1071.97 1754.62 1073.01C1754.81 1073.24 1754.43 1073.5 1754.24 1073.27Z" fill="white"/>
<path d="M1748.29 1084.37C1751.26 1084.69 1754.24 1083.88 1756.64 1082.1C1756.87 1081.93 1757.13 1082.3 1756.9 1082.48C1754.4 1084.32 1751.3 1085.16 1748.21 1084.82C1747.92 1084.78 1748 1084.33 1748.29 1084.37Z" fill="white"/>
<path d="M1765.41 1065.93C1765.68 1066.44 1766.07 1066.87 1766.55 1067.2C1767.02 1067.52 1767.57 1067.72 1768.15 1067.78C1768.44 1067.81 1768.36 1068.26 1768.07 1068.23C1767.43 1068.16 1766.82 1067.94 1766.3 1067.58C1765.77 1067.23 1765.33 1066.75 1765.03 1066.19C1765 1066.14 1764.99 1066.08 1765 1066.02C1765.01 1065.96 1765.04 1065.9 1765.09 1065.87C1765.14 1065.83 1765.2 1065.82 1765.26 1065.83C1765.32 1065.84 1765.38 1065.88 1765.41 1065.93Z" fill="white"/>
<path d="M1422.33 1112.32H1242C1241.73 1112.32 1241.48 1112.22 1241.29 1112.03C1241.11 1111.84 1241 1111.59 1241 1111.32C1241 1111.06 1241.11 1110.8 1241.29 1110.62C1241.48 1110.43 1241.73 1110.32 1242 1110.32H1422C1422.27 1110.32 1422.52 1110.43 1422.71 1110.62C1422.89 1110.8 1423 1111.06 1423 1111.32C1423 1111.87 1422.88 1112.32 1422.33 1112.32Z" fill="#CACACA"/>
<path d="M1849.33 1099.18H1669C1668.73 1099.18 1668.48 1099.07 1668.29 1098.88C1668.11 1098.7 1668 1098.44 1668 1098.18C1668 1097.91 1668.11 1097.66 1668.29 1097.47C1668.48 1097.29 1668.73 1097.18 1669 1097.18H1849C1849.27 1097.18 1849.52 1097.29 1849.71 1097.47C1849.89 1097.66 1850 1097.91 1850 1098.18C1850 1098.73 1849.88 1099.18 1849.33 1099.18Z" fill="#CACACA"/>
<path d="M1460.26 1137.28C1449.06 1137.28 1438.8 1136.21 1430.65 1133.68C1420.97 1130.67 1414.89 1125.8 1412.58 1119.19C1411.49 1116.39 1411.17 1113.35 1411.64 1110.38C1412.11 1107.41 1413.35 1104.62 1415.25 1102.29C1429.58 1083.65 1479.3 1078.39 1485.97 1077.77L1499.51 1052.18C1500.37 1046.08 1496.27 1041.46 1503.35 1041.34L1587.09 1040.21C1594.04 1040.06 1592.07 1044.36 1593.26 1050.31L1606.01 1073.05L1551.11 1096.19L1559.41 1116.38L1558.87 1116.7C1542.8 1126 1496.58 1137.28 1460.26 1137.28Z" fill="#2F2E41"/>
<path d="M1598.41 1074.02C1598.41 1074.02 1675.09 1065.26 1670.09 1100.3C1665.09 1135.35 1606.75 1160.17 1518.4 1100.3L1528.4 1082.78C1528.4 1082.78 1561.32 1081.15 1581.33 1072.39L1598.41 1074.02Z" fill="#2F2E41"/>
<path d="M1489.85 915.252C1489.85 915.252 1475.28 912.606 1471.3 935.094C1467.33 957.582 1460.96 1010.85 1460.96 1010.85L1441.19 1079.28C1438.86 1080.51 1436.93 1082.38 1435.63 1084.67C1434.32 1086.97 1433.69 1089.58 1433.82 1092.21C1433.95 1094.85 1434.82 1097.39 1436.34 1099.54C1437.86 1101.7 1439.97 1103.38 1442.41 1104.38C1444.85 1105.39 1447.52 1105.68 1450.12 1105.22C1452.72 1104.77 1455.14 1103.58 1457.09 1101.81C1459.04 1100.03 1460.45 1097.74 1461.14 1095.2C1461.83 1092.65 1461.79 1089.97 1461.01 1087.45L1487.46 1014.82L1492.5 952.296V919.532C1492.5 918.643 1492.26 917.772 1491.79 917.016C1491.32 916.26 1490.65 915.649 1489.85 915.252Z" fill="#FEB8B8"/>
<path d="M1592.44 915.252C1592.44 915.252 1607.01 912.606 1610.99 935.094C1614.96 957.582 1621.33 1010.85 1621.33 1010.85L1641.1 1079.28C1643.43 1080.51 1645.36 1082.38 1646.67 1084.67C1647.97 1086.97 1648.6 1089.58 1648.47 1092.21C1648.34 1094.85 1647.47 1097.39 1645.95 1099.54C1644.43 1101.7 1642.33 1103.38 1639.89 1104.38C1637.45 1105.39 1634.77 1105.68 1632.17 1105.22C1629.57 1104.77 1627.15 1103.58 1625.2 1101.81C1623.25 1100.03 1621.85 1097.74 1621.15 1095.2C1620.46 1092.65 1620.5 1089.97 1621.28 1087.45L1594.83 1014.82L1589.79 952.296V919.532C1589.79 918.643 1590.04 917.772 1590.5 917.016C1590.97 916.26 1591.64 915.649 1592.44 915.252Z" fill="#FEB8B8"/>
<path d="M1591.33 896.663L1563.76 886.369L1510.33 885.681L1487.33 896.663L1493.79 933.731C1493.79 933.731 1480.74 955.781 1495.1 977.833L1498.33 1056.41C1498.33 1056.41 1549.84 1086.24 1593.33 1050.42L1583.5 977.362C1583.5 977.362 1599.94 943.465 1587.2 930.872L1591.33 896.663Z" fill="#6C63FF"/>
<path d="M1580.1 908.182L1591.33 896.663C1591.33 896.663 1615.83 909.532 1615.33 952.575L1584.42 943.063L1580.1 908.182Z" fill="#6C63FF"/>
<path d="M1499.8 908.182L1487.87 896.272C1487.87 896.272 1466.82 912.528 1467.33 955.57L1495.48 943.063L1499.8 908.182Z" fill="#6C63FF"/>
<path d="M1577.56 1107.57C1577.56 1107.57 1568.98 1089.53 1554.64 1098.18C1540.3 1106.83 1513.91 1121.19 1513.91 1121.19C1513.91 1121.19 1507.74 1131.49 1521.22 1128.78C1534.69 1126.07 1577.98 1123.96 1577.98 1123.96L1577.56 1107.57Z" fill="#FEB8B8"/>
<path d="M1553.71 785.123C1553.83 785.007 1553.96 784.902 1554.08 784.783C1561.75 777.122 1563.3 766.253 1557.55 760.507C1552.11 755.077 1542.09 756.173 1534.53 762.775C1528.05 756.613 1519.36 754.895 1513.73 759.149C1507.24 764.054 1507.29 775.033 1513.84 783.671C1514.29 784.262 1514.76 784.821 1515.25 785.36C1506.53 788.546 1499 794.329 1493.68 801.926C1488.36 809.524 1485.51 818.57 1485.51 827.839V870.891C1485.51 872.153 1485.76 873.403 1486.24 874.569C1486.73 875.736 1487.44 876.796 1488.33 877.688C1489.23 878.581 1490.29 879.289 1491.46 879.772C1492.62 880.255 1493.88 880.504 1495.14 880.504H1574.84C1577.3 880.504 1579.67 879.525 1581.42 877.783C1583.16 876.04 1584.14 873.677 1584.14 871.213V827.839C1584.14 818.445 1581.21 809.285 1575.76 801.63C1570.3 793.975 1562.6 788.206 1553.71 785.123Z" fill="#2F2E41"/>
<path d="M1562.83 865.15C1577.6 850.404 1577.6 826.497 1562.83 811.752C1548.06 797.006 1524.11 797.006 1509.34 811.752C1494.58 826.497 1494.58 850.404 1509.34 865.15C1524.11 879.895 1548.06 879.895 1562.83 865.15Z" fill="#FFB6B6"/>
<path d="M1496.35 814.701C1504.99 820.648 1515.25 823.813 1525.74 823.771C1522 826.363 1517.74 828.113 1513.25 828.902C1527.2 831.891 1541.63 831.972 1555.61 829.14C1558.72 828.642 1561.72 827.613 1564.48 826.099C1565.86 825.332 1567.06 824.285 1568 823.026C1568.94 821.766 1569.61 820.323 1569.96 818.789C1570.89 813.488 1566.75 808.671 1562.45 805.425C1555.87 800.531 1548.28 797.159 1540.23 795.553C1532.18 793.948 1523.87 794.148 1515.91 796.14C1510.71 797.482 1505.5 799.749 1502.13 803.917C1498.75 808.085 1497.75 814.512 1500.97 818.804L1496.35 814.701Z" fill="#2F2E41"/>
<path d="M1373.77 944.095L1375.24 945.445L1348.52 974.527C1353.93 973.359 1371.14 969.026 1378.8 959.775C1387.94 948.724 1386.36 940.112 1379.98 934.843C1373.59 929.574 1364.82 929.643 1355.67 940.695C1347.92 950.063 1346.97 968.094 1346.86 973.372L1373.77 944.095Z" fill="#F2F2F2"/>
<rect x="2.5" y="603.548" width="695" height="693.894" rx="9.5" stroke="white" stroke-width="5"/>
<rect x="600.5" y="1198.61" width="695" height="693.894" rx="9.5" stroke="white" stroke-width="5"/>
<rect x="1197.5" y="603.548" width="695" height="693.894" rx="9.5" stroke="white" stroke-width="5"/>
<rect x="600.5" y="2.5" width="695" height="693.894" rx="9.5" stroke="white" stroke-width="5"/>
<path d="M968.485 322.967L965.415 327.713L1006.41 354.151L1009.48 349.405L968.485 322.967Z" fill="#2F2E41"/>
<path d="M1011.51 354.077C1016.6 346.214 1019.12 338.811 1017.16 337.541C1015.19 336.272 1009.47 341.616 1004.38 349.479C999.294 357.341 996.767 364.744 998.735 366.014C1000.7 367.284 1006.42 361.939 1011.51 354.077Z" fill="#2F2E41"/>
<path d="M970.515 327.639C975.602 319.776 978.13 312.373 976.161 311.104C974.192 309.834 968.472 315.179 963.386 323.041C958.299 330.904 955.771 338.307 957.74 339.576C959.709 340.846 965.428 335.501 970.515 327.639Z" fill="#2F2E41"/>
<path d="M1104.13 575.353C1194.34 575.353 1267.46 569.785 1267.46 562.916C1267.46 556.046 1194.34 550.478 1104.13 550.478C1013.92 550.478 940.797 556.046 940.797 562.916C940.797 569.785 1013.92 575.353 1104.13 575.353Z" fill="#E6E6E6"/>
<path d="M791.332 515.74C881.538 515.74 954.664 510.171 954.664 503.302C954.664 496.433 881.538 490.864 791.332 490.864C701.126 490.864 628 496.433 628 503.302C628 510.171 701.126 515.74 791.332 515.74Z" fill="#E6E6E6"/>
<path d="M975.145 532.898C975.417 543.041 977.119 553.095 980.2 562.764C980.27 562.989 980.344 563.21 980.418 563.434H999.282C999.262 563.233 999.242 563.009 999.222 562.764C997.964 548.327 990.712 460.457 999.383 445.431C998.625 446.65 973.683 487.025 975.145 532.898Z" fill="#E6E6E6"/>
<path d="M976.56 562.764C976.718 562.989 976.883 563.213 977.05 563.434H991.202C991.094 563.243 990.97 563.019 990.826 562.764C988.488 558.551 981.568 545.956 975.145 532.898C968.242 518.866 961.909 504.302 962.443 499.03C962.278 500.219 957.502 536.462 976.56 562.764Z" fill="#E6E6E6"/>
<path d="M999.222 313.273C999.222 313.273 967.707 344.109 980.943 347.885C994.18 351.661 1009.31 319.566 1009.31 319.566L999.222 313.273Z" fill="#A0616A"/>
<path d="M1030.74 417.11L1026.96 434.731L1055.32 435.989L1050.91 417.11H1030.74Z" fill="#A0616A"/>
<path d="M1120.24 525.981L1116.46 543.602L1144.82 544.861L1140.41 525.981H1120.24Z" fill="#A0616A"/>
<path d="M1070.45 299.428L1072.97 309.497C1072.97 309.497 1003 295.652 1006.79 330.894C1010.57 366.135 1026.96 400.118 1026.96 400.118C1026.96 400.118 1025.7 411.446 1028.22 413.334C1030.74 415.222 1028.22 421.515 1028.22 421.515C1028.22 421.515 1051.54 424.662 1052.17 418.998C1052.51 415.211 1052.29 411.396 1051.54 407.67C1051.54 407.67 1052.8 407.67 1051.54 401.377C1050.28 395.084 1045.19 344.331 1041.4 337.409C1041.4 337.409 1074.86 362.989 1092.51 359.842C1092.51 359.842 1089.99 385.015 1100.07 418.368C1110.16 451.722 1110.16 455.498 1110.16 455.498C1110.16 455.498 1122.13 519.059 1118.98 526.611L1118.35 529.757H1141.67C1141.67 529.757 1139.78 496.403 1141.67 491.998C1143.56 487.593 1143.56 449.834 1132.85 430.955C1125.26 417.585 1126.67 378.819 1130.82 363.497C1134.31 350.629 1135.19 340.726 1133.15 327.553C1130.96 313.466 1124.44 306.103 1116.46 299.428H1070.45Z" fill="#2F2E41"/>
<path d="M1089.04 204.716C1101.57 204.716 1111.73 194.573 1111.73 182.061C1111.73 169.548 1101.57 159.405 1089.04 159.405C1076.51 159.405 1066.35 169.548 1066.35 182.061C1066.35 194.573 1076.51 204.716 1089.04 204.716Z" fill="#A0616A"/>
<path d="M1083.05 198.108C1083.05 198.108 1089.99 218.246 1089.36 222.022C1088.73 225.798 1109.53 214.47 1109.53 214.47C1109.53 214.47 1101.33 194.332 1103.85 188.668L1083.05 198.108Z" fill="#A0616A"/>
<path d="M1108.27 207.548L1086.21 216.358L1087.47 223.91C1087.47 223.91 1085.57 226.427 1086.21 227.686C1086.84 228.945 1078.01 233.979 1079.27 235.867C1080.53 237.755 1071.71 245.307 1072.34 247.195C1072.97 249.083 1052.17 260.41 1063.51 282.436C1063.51 282.436 1069.4 290.071 1068.66 299.1C1068.63 299.418 1068.6 299.737 1068.56 300.057C1067.3 309.497 1116.46 298.799 1116.46 298.799V288.1C1116.46 288.1 1120.87 286.212 1120.24 278.031C1119.61 269.85 1115.83 273.626 1120.24 269.221C1124.65 264.816 1124.65 265.445 1124.02 261.669C1123.77 260.161 1123.72 254.74 1123.75 248.77C1123.81 236.158 1119.7 223.88 1112.05 213.841L1108.27 207.548Z" fill="#6C63FF"/>
<path d="M1096.29 223.91L1055.32 266.704L995.44 313.902L1008.68 324.6L1118.98 250.971C1118.98 250.971 1128.44 210.694 1096.29 223.91Z" fill="#6C63FF"/>
<path d="M1032.63 426.55C1032.63 426.55 1028.22 418.998 1025.06 421.515L1003 439.136C1003 439.136 963.925 450.464 1001.74 459.274C1001.74 459.274 1022.54 462.42 1026.96 459.274C1031.37 456.127 1038.3 456.757 1040.19 458.015C1042.08 459.274 1066.04 457.386 1066.04 452.351C1066.04 447.317 1052.83 425.314 1052.83 425.314C1052.83 425.314 1045.23 434.101 1032.63 426.55Z" fill="#2F2E41"/>
<path d="M1122.13 535.421C1122.13 535.421 1117.72 527.869 1114.57 530.386L1092.51 548.007C1092.51 548.007 1053.43 559.335 1091.25 568.145C1091.25 568.145 1112.05 571.292 1116.46 568.145C1120.87 564.999 1127.81 565.628 1129.7 566.887C1131.59 568.145 1155.54 566.257 1155.54 561.223C1155.54 556.188 1142.33 534.185 1142.33 534.185C1142.33 534.185 1134.74 542.973 1122.13 535.421Z" fill="#2F2E41"/>
<path d="M1061.85 173.076C1061.85 173.076 1065.68 139.403 1098.5 148.964C1098.5 148.964 1121.71 144.25 1129.91 173.197L1138.23 203.546L1134.42 201.569L1132.74 205.439L1126.66 207.101L1123.95 201.97L1122.8 208.286L1080.82 216.76C1080.82 216.76 1095.02 200.563 1094.92 176.841L1090.74 181.426L1061.85 173.076Z" fill="#2F2E41"/>
<path d="M836.375 145.696H783.889V211.043H836.375V145.696Z" fill="#2F2E41"/>
<path d="M740.548 450.519L733.391 476.817L745.32 485.583L748.501 483.192L754.067 456.097L740.548 450.519Z" fill="#FFB8B8"/>
<path d="M830.411 448.128L828.025 480.004H843.135V450.519L830.411 448.128Z" fill="#FFB8B8"/>
<path d="M782.696 246.506V265.632L812.12 270.414L837.568 260.054L832.796 248.1L782.696 246.506Z" fill="#FFB8B8"/>
<path d="M806.553 262.445L781.106 257.663L774.744 309.463L758.839 374.014C758.839 374.014 734.982 429.002 738.163 441.752L739.753 445.737L738.163 452.909L754.067 459.285L760.429 448.925C760.429 448.925 765.201 456.097 773.153 440.955C781.106 425.814 814.506 331.777 814.506 331.777L820.072 347.715C818.633 352.632 818.36 357.817 819.277 362.857C820.868 370.826 822.458 395.531 822.458 395.531C822.458 395.531 813.711 438.565 825.639 441.752L828.025 451.315L844.725 452.909L847.906 443.346C847.906 443.346 863.811 437.768 859.835 409.875C855.858 381.983 854.268 290.337 854.268 290.337L838.601 251.627L806.553 262.445Z" fill="#2F2E41"/>
<path d="M738.163 475.223C738.163 475.223 734.186 472.035 732.596 472.832C731.005 473.629 714.305 495.146 714.305 495.146C714.305 495.146 696.81 508.694 709.534 510.288C722.258 511.882 757.248 494.349 757.248 490.365C757.248 486.38 749.896 476.401 749.896 476.401C749.896 476.401 744.525 480.802 738.163 475.223Z" fill="#2F2E41"/>
<path d="M826.434 472.832C826.434 472.832 840.749 471.941 843.135 474.379C845.52 476.817 844.725 488.771 844.725 488.771C844.725 488.771 846.316 510.288 833.592 510.288C820.868 510.288 824.049 495.943 824.049 495.943L826.434 472.832Z" fill="#2F2E41"/>
<path d="M812.12 176.377C823.1 176.377 832.001 167.457 832.001 156.454C832.001 145.451 823.1 136.531 812.12 136.531C801.14 136.531 792.239 145.451 792.239 156.454C792.239 167.457 801.14 176.377 812.12 176.377Z" fill="#FFB8B8"/>
<path d="M798.999 168.806C798.999 168.806 810.132 182.354 787.865 192.714C765.598 203.074 803.77 246.108 803.77 246.108C803.77 246.108 848.304 229.372 844.327 196.699C844.327 196.699 817.289 191.917 823.651 169.603L798.999 168.806Z" fill="#FFB8B8"/>
<path d="M787.07 191.917C787.07 191.917 768.78 189.526 767.984 204.668C767.189 219.809 767.984 256.468 767.984 256.468C767.984 256.468 760.032 288.345 764.008 316.237C764.008 316.237 759.237 348.911 771.961 347.317C784.684 345.723 775.141 313.846 775.141 313.846L780.708 262.046L778.322 223.794L788.661 200.683L787.07 191.917Z" fill="#FFB8B8"/>
<path d="M839.71 195.438C839.71 195.438 857.051 195.105 857.847 207.856C858.642 220.606 852.28 259.656 852.28 259.656L842.737 264.437L833.989 237.342L839.71 195.438Z" fill="#FFB8B8"/>
<path d="M844.725 260.851L843.135 264.836L847.906 276.789C847.906 276.789 828.82 291.931 830.411 295.119C832.001 298.306 840.749 291.134 840.749 291.134L853.473 297.509C853.473 297.509 863.811 286.352 859.039 275.992C856.396 270.423 854.185 264.659 852.425 258.752C852.425 258.752 845.52 258.46 844.725 260.851Z" fill="#FFB8B8"/>
<path d="M783.491 189.128L781.106 215.426C781.106 215.426 769.972 226.583 782.696 241.725L781.106 253.679C781.106 253.679 810.53 252.085 816.096 253.679C821.663 255.272 838.855 252.395 838.855 252.395L839.158 243.319C839.158 243.319 847.111 232.162 844.725 215.426C842.339 198.691 844.725 193.112 844.725 193.112L839.158 192.316C839.158 192.316 835.58 216.622 810.927 219.012C810.927 219.012 780.31 221.802 789.058 189.128L783.491 189.128Z" fill="#E6E6E6"/>
<path d="M814.108 124.179C814.108 124.179 793.432 122.894 788.66 135.779C783.889 148.664 775.539 155.428 775.539 155.428C775.539 155.428 762.386 164.59 768.962 180.947C768.962 180.947 748.501 194.726 762.02 206.966C762.02 206.966 761.225 219.207 769.177 227.582C769.177 227.582 775.539 230.803 773.153 232.736C770.768 234.668 789.058 233.38 787.468 215.986C785.877 198.591 796.613 186.339 796.613 186.339C796.613 186.339 786.275 163.786 791.046 156.056C793.943 151.362 795.187 147.862 797.592 145.836C798.932 144.734 800.174 143.52 801.305 142.205C802.371 140.851 803.823 139.851 805.47 139.337C807.116 138.822 808.88 138.817 810.53 139.322C817.687 141.255 819.277 147.053 819.277 147.053C819.277 147.053 824.446 160.904 833.194 167.346C841.942 173.788 826.434 185.062 826.434 185.062C826.434 185.062 829.13 198.336 836.132 206.194C843.135 214.053 834.114 220.903 833.592 221.784C832.399 223.794 827.635 236.489 847.313 236.545C847.313 236.545 851.882 226.938 858.244 221.139C864.606 215.341 859.835 198.591 859.835 198.591C859.835 198.591 869.378 192.793 859.039 178.62C859.039 178.62 862.22 165.736 853.473 157.361C853.473 157.361 841.146 119.669 814.108 124.179Z" fill="#2F2E41"/>
<path d="M790.648 159.243C791.746 159.243 792.637 157.816 792.637 156.056C792.637 154.295 791.746 152.868 790.648 152.868C789.55 152.868 788.66 154.295 788.66 156.056C788.66 157.816 789.55 159.243 790.648 159.243Z" fill="#FFB8B8"/>
<path d="M695.69 484.771H646.887V490.421H695.69V484.771Z" fill="#2F2E41"/>
<path d="M695.69 504.544C698.034 504.544 699.934 496.956 699.934 487.596C699.934 478.236 698.034 470.648 695.69 470.648C693.347 470.648 691.447 478.236 691.447 487.596C691.447 496.956 693.347 504.544 695.69 504.544Z" fill="#2F2E41"/>
<path d="M646.888 504.544C649.231 504.544 651.131 496.956 651.131 487.596C651.131 478.236 649.231 470.648 646.888 470.648C644.544 470.648 642.644 478.236 642.644 487.596C642.644 496.956 644.544 504.544 646.888 504.544Z" fill="#2F2E41"/>
<path d="M684.105 484.771H635.302V490.421H684.105V484.771Z" fill="#2F2E41"/>
<path d="M684.105 504.544C686.449 504.544 688.349 496.956 688.349 487.596C688.349 478.236 686.449 470.648 684.105 470.648C681.761 470.648 679.861 478.236 679.861 487.596C679.861 496.956 681.761 504.544 684.105 504.544Z" fill="#2F2E41"/>
<path d="M635.302 504.544C637.646 504.544 639.546 496.956 639.546 487.596C639.546 478.236 637.646 470.648 635.302 470.648C632.959 470.648 631.059 478.236 631.059 487.596C631.059 496.956 632.959 504.544 635.302 504.544Z" fill="#2F2E41"/>
</svg>
