<svg width="935" height="165" viewBox="0 0 935 165" fill="none" xmlns="http://www.w3.org/2000/svg">
<circle cx="73.4546" cy="47.9545" r="20.0852" fill="#12100E"/>
<path d="M63.0085 53.6932L59.7357 57.8627V58.3334H67.8056V57.8627L64.5552 53.6932V42.9332L71.5268 58.3334H72.5131L78.4759 42.9332V55.5762L76.0325 57.8627V58.3334H86.7252V57.8627L84.349 55.5762V39.6604L86.7252 37.4412V36.9032H79.3501L73.9702 50.1065L67.9625 36.9032H60.1167V37.4412L63.0085 40.8709V53.6932Z" fill="white"/>
<path d="M108.403 38.1364H112.955L117.761 49.8636H117.966L122.773 38.1364H127.324V55.5909H123.744V44.2301H123.599L119.082 55.5057H116.645L112.128 44.1875H111.983V55.5909H108.403V38.1364ZM130.364 55.5909V38.1364H142.126V41.179H134.055V45.3381H141.521V48.3807H134.055V52.5483H142.16V55.5909H130.364ZM151.247 55.5909H145.06V38.1364H151.298C153.054 38.1364 154.565 38.4858 155.832 39.1847C157.099 39.8778 158.074 40.875 158.756 42.1761C159.443 43.4773 159.787 45.0341 159.787 46.8466C159.787 48.6648 159.443 50.2273 158.756 51.5341C158.074 52.8409 157.094 53.8438 155.815 54.5426C154.543 55.2415 153.02 55.5909 151.247 55.5909ZM148.75 52.429H151.094C152.185 52.429 153.102 52.2358 153.847 51.8494C154.597 51.4574 155.159 50.8523 155.534 50.0341C155.915 49.2102 156.105 48.1477 156.105 46.8466C156.105 45.5568 155.915 44.5028 155.534 43.6847C155.159 42.8665 154.599 42.2642 153.855 41.8778C153.111 41.4915 152.193 41.2983 151.102 41.2983H148.75V52.429ZM166.211 38.1364V55.5909H162.521V38.1364H166.211ZM180.028 38.1364H183.719V49.4716C183.719 50.7443 183.415 51.858 182.807 52.8125C182.205 53.767 181.361 54.5114 180.276 55.0455C179.19 55.5739 177.926 55.8381 176.483 55.8381C175.034 55.8381 173.767 55.5739 172.682 55.0455C171.597 54.5114 170.753 53.767 170.151 52.8125C169.548 51.858 169.247 50.7443 169.247 49.4716V38.1364H172.938V49.1563C172.938 49.821 173.082 50.4119 173.372 50.929C173.668 51.446 174.082 51.8523 174.616 52.1477C175.151 52.4432 175.773 52.5909 176.483 52.5909C177.199 52.5909 177.821 52.4432 178.349 52.1477C178.884 51.8523 179.295 51.446 179.585 50.929C179.881 50.4119 180.028 49.821 180.028 49.1563V38.1364ZM186.755 38.1364H191.306L196.113 49.8636H196.317L201.124 38.1364H205.675V55.5909H202.096V44.2301H201.951L197.434 55.5057H194.996L190.479 44.1875H190.335V55.5909H186.755V38.1364Z" fill="white"/>
<path d="M470.074 42.7216C469.983 41.9148 469.608 41.2898 468.949 40.8466C468.29 40.3977 467.46 40.1733 466.46 40.1733C465.744 40.1733 465.125 40.2869 464.602 40.5142C464.08 40.7358 463.673 41.0426 463.384 41.4347C463.099 41.821 462.957 42.2614 462.957 42.7557C462.957 43.1705 463.054 43.5284 463.247 43.8295C463.446 44.1307 463.705 44.3835 464.023 44.5881C464.347 44.7869 464.693 44.9545 465.062 45.0909C465.432 45.2216 465.787 45.3295 466.128 45.4148L467.832 45.858C468.389 45.9943 468.96 46.179 469.545 46.4119C470.131 46.6449 470.673 46.9517 471.173 47.3324C471.673 47.7131 472.077 48.1847 472.384 48.7472C472.696 49.3097 472.852 49.983 472.852 50.767C472.852 51.7557 472.597 52.6335 472.085 53.4006C471.58 54.1676 470.844 54.7727 469.878 55.2159C468.918 55.6591 467.756 55.8807 466.392 55.8807C465.085 55.8807 463.955 55.6733 463 55.2585C462.045 54.8438 461.298 54.2557 460.759 53.4943C460.219 52.7273 459.92 51.8182 459.864 50.767H462.506C462.557 51.3977 462.761 51.9233 463.119 52.3438C463.483 52.7585 463.946 53.0682 464.509 53.2727C465.077 53.4716 465.699 53.571 466.375 53.571C467.119 53.571 467.781 53.4545 468.361 53.2216C468.946 52.983 469.406 52.6534 469.741 52.233C470.077 51.8068 470.244 51.3097 470.244 50.7415C470.244 50.2244 470.097 49.8011 469.801 49.4716C469.511 49.142 469.116 48.8693 468.616 48.6534C468.122 48.4375 467.562 48.2472 466.937 48.0824L464.875 47.5199C463.477 47.1392 462.369 46.5795 461.551 45.8409C460.739 45.1023 460.332 44.125 460.332 42.9091C460.332 41.9034 460.605 41.0256 461.151 40.2756C461.696 39.5256 462.435 38.9432 463.366 38.5284C464.298 38.108 465.349 37.8977 466.52 37.8977C467.702 37.8977 468.744 38.1051 469.648 38.5199C470.557 38.9347 471.273 39.5057 471.795 40.233C472.318 40.9545 472.591 41.7841 472.614 42.7216H470.074ZM475.795 60.5V42.5H478.283V44.6222H478.496C478.644 44.3494 478.857 44.0341 479.136 43.6761C479.414 43.3182 479.8 43.0057 480.295 42.7386C480.789 42.4659 481.442 42.3295 482.255 42.3295C483.312 42.3295 484.255 42.5966 485.085 43.1307C485.914 43.6648 486.565 44.4347 487.036 45.4403C487.513 46.446 487.752 47.6563 487.752 49.071C487.752 50.4858 487.516 51.6989 487.045 52.7102C486.573 53.7159 485.925 54.4915 485.102 55.0369C484.278 55.5767 483.337 55.8466 482.281 55.8466C481.485 55.8466 480.835 55.7131 480.329 55.446C479.829 55.179 479.437 54.8665 479.153 54.5085C478.869 54.1506 478.65 53.8324 478.496 53.554H478.343V60.5H475.795ZM478.292 49.0455C478.292 49.9659 478.425 50.7727 478.692 51.4659C478.96 52.1591 479.346 52.7017 479.852 53.0938C480.357 53.4801 480.977 53.6733 481.71 53.6733C482.471 53.6733 483.107 53.4716 483.619 53.0682C484.13 52.6591 484.516 52.1051 484.778 51.4063C485.045 50.7074 485.178 49.9205 485.178 49.0455C485.178 48.1818 485.048 47.4063 484.786 46.7188C484.531 46.0313 484.144 45.4886 483.627 45.0909C483.116 44.6932 482.477 44.4943 481.71 44.4943C480.971 44.4943 480.346 44.6847 479.835 45.0653C479.329 45.446 478.945 45.9773 478.684 46.6591C478.423 47.3409 478.292 48.1364 478.292 49.0455ZM496.121 55.8551C494.894 55.8551 493.823 55.5739 492.908 55.0114C491.994 54.4489 491.283 53.6619 490.778 52.6506C490.272 51.6392 490.019 50.4574 490.019 49.1051C490.019 47.7472 490.272 46.5597 490.778 45.5426C491.283 44.5256 491.994 43.7358 492.908 43.1733C493.823 42.6108 494.894 42.3295 496.121 42.3295C497.349 42.3295 498.42 42.6108 499.335 43.1733C500.249 43.7358 500.96 44.5256 501.465 45.5426C501.971 46.5597 502.224 47.7472 502.224 49.1051C502.224 50.4574 501.971 51.6392 501.465 52.6506C500.96 53.6619 500.249 54.4489 499.335 55.0114C498.42 55.5739 497.349 55.8551 496.121 55.8551ZM496.13 53.7159C496.925 53.7159 497.585 53.5057 498.107 53.0852C498.63 52.6648 499.016 52.1051 499.266 51.4063C499.522 50.7074 499.65 49.9375 499.65 49.0966C499.65 48.2614 499.522 47.4943 499.266 46.7955C499.016 46.0909 498.63 45.5256 498.107 45.0994C497.585 44.6733 496.925 44.4602 496.13 44.4602C495.329 44.4602 494.664 44.6733 494.136 45.0994C493.613 45.5256 493.224 46.0909 492.968 46.7955C492.718 47.4943 492.593 48.2614 492.593 49.0966C492.593 49.9375 492.718 50.7074 492.968 51.4063C493.224 52.1051 493.613 52.6648 494.136 53.0852C494.664 53.5057 495.329 53.7159 496.13 53.7159ZM511.179 42.5V44.5455H504.028V42.5H511.179ZM505.946 39.3636H508.494V51.7472C508.494 52.2415 508.568 52.6136 508.716 52.8636C508.864 53.108 509.054 53.2756 509.287 53.3665C509.526 53.4517 509.784 53.4943 510.062 53.4943C510.267 53.4943 510.446 53.4801 510.599 53.4517C510.753 53.4233 510.872 53.4006 510.957 53.3835L511.418 55.4886C511.27 55.5455 511.06 55.6023 510.787 55.6591C510.514 55.7216 510.173 55.7557 509.764 55.7614C509.094 55.7727 508.469 55.6534 507.889 55.4034C507.31 55.1534 506.841 54.767 506.483 54.2443C506.125 53.7216 505.946 53.0653 505.946 52.2756V39.3636ZM513.998 55.5909V42.5H516.546V55.5909H513.998ZM515.285 40.4801C514.842 40.4801 514.461 40.3324 514.143 40.0369C513.83 39.7358 513.674 39.3778 513.674 38.9631C513.674 38.5426 513.83 38.1847 514.143 37.8892C514.461 37.5881 514.842 37.4375 515.285 37.4375C515.728 37.4375 516.106 37.5881 516.418 37.8892C516.736 38.1847 516.896 38.5426 516.896 38.9631C516.896 39.3778 516.736 39.7358 516.418 40.0369C516.106 40.3324 515.728 40.4801 515.285 40.4801ZM526.205 42.5V44.5455H518.807V42.5H526.205ZM520.835 55.5909V40.983C520.835 40.1648 521.014 39.4858 521.372 38.946C521.73 38.4006 522.205 37.9943 522.795 37.7273C523.386 37.4545 524.028 37.3182 524.722 37.3182C525.233 37.3182 525.67 37.3608 526.034 37.446C526.398 37.5256 526.668 37.5994 526.844 37.6676L526.247 39.7301C526.128 39.696 525.974 39.6563 525.787 39.6108C525.599 39.5597 525.372 39.5341 525.105 39.5341C524.486 39.5341 524.043 39.6875 523.776 39.9943C523.514 40.3011 523.384 40.7443 523.384 41.3239V55.5909H520.835ZM530.445 60.5C530.064 60.5 529.717 60.4688 529.405 60.4063C529.092 60.3494 528.859 60.2869 528.706 60.2188L529.32 58.1307C529.786 58.2557 530.2 58.3097 530.564 58.2926C530.928 58.2756 531.249 58.1392 531.527 57.8835C531.811 57.6278 532.061 57.2102 532.277 56.6307L532.592 55.7614L527.803 42.5H530.53L533.845 52.6591H533.982L537.297 42.5H540.033L534.638 57.3381C534.388 58.0199 534.07 58.5966 533.683 59.0682C533.297 59.5455 532.837 59.9034 532.303 60.142C531.768 60.3807 531.149 60.5 530.445 60.5Z" fill="white"/>
<path d="M424.205 68.0398C435.297 68.0398 444.29 59.0473 444.29 47.9545C444.29 36.8618 435.297 27.8693 424.205 27.8693C413.112 27.8693 404.119 36.8618 404.119 47.9545C404.119 59.0473 413.112 68.0398 424.205 68.0398Z" fill="#1ED760"/>
<path d="M433.335 56.0216C432.992 56.5661 432.26 56.7184 431.688 56.3918C427.181 53.7783 421.531 53.1902 414.851 54.6277C414.21 54.7584 413.57 54.3881 413.433 53.7783C413.295 53.1685 413.684 52.5587 414.325 52.428C421.622 50.8381 427.891 51.5132 432.923 54.4534C433.495 54.7801 433.678 55.477 433.335 56.0216ZM435.669 51.0558C435.234 51.731 434.319 51.9271 433.61 51.535C428.462 48.5078 420.616 47.6365 414.531 49.4007C413.73 49.6185 412.906 49.2047 412.678 48.4641C412.449 47.7019 412.883 46.9179 413.684 46.7001C420.639 44.6963 429.286 45.6546 435.211 49.1175C435.874 49.5096 436.103 50.3807 435.669 51.0558ZM435.874 45.8724C429.698 42.3876 419.518 42.061 413.616 43.7597C412.678 44.0429 411.671 43.542 411.374 42.6272C411.076 41.7343 411.625 40.7761 412.563 40.4929C419.335 38.5328 430.59 38.9248 437.682 42.9322C438.528 43.4113 438.803 44.4567 438.299 45.2626C437.819 46.0902 436.721 46.3733 435.874 45.8724Z" fill="white"/>
<path d="M805.903 37.7841V55.2386H802.324L795.378 45.1648H795.267V55.2386H791.048V37.7841H794.679L801.548 47.8409H801.693V37.7841H805.903ZM814.675 55.4858C813.306 55.4858 812.124 55.2159 811.13 54.6761C810.141 54.1307 809.38 53.3551 808.846 52.3494C808.317 51.3381 808.053 50.1364 808.053 48.7443C808.053 47.392 808.32 46.2102 808.854 45.1989C809.389 44.1818 810.141 43.392 811.113 42.8295C812.085 42.2614 813.229 41.9773 814.548 41.9773C815.479 41.9773 816.332 42.1222 817.104 42.4119C817.877 42.7017 818.545 43.1307 819.107 43.6989C819.67 44.267 820.107 44.9687 820.42 45.804C820.732 46.6335 820.889 47.5852 820.889 48.6591V49.6989H809.511V47.2784H817.011C817.005 46.8352 816.9 46.4403 816.695 46.0937C816.491 45.7472 816.21 45.4773 815.852 45.2841C815.499 45.0852 815.093 44.9858 814.633 44.9858C814.167 44.9858 813.749 45.0909 813.38 45.3011C813.011 45.5057 812.718 45.7869 812.502 46.1449C812.286 46.4972 812.173 46.8977 812.161 47.3466V49.8097C812.161 50.3437 812.266 50.8125 812.477 51.2159C812.687 51.6136 812.985 51.9233 813.371 52.1449C813.758 52.3665 814.218 52.4773 814.752 52.4773C815.121 52.4773 815.457 52.4261 815.758 52.3239C816.059 52.2216 816.317 52.071 816.533 51.8722C816.749 51.6733 816.911 51.429 817.019 51.1392L820.846 51.25C820.687 52.108 820.337 52.8551 819.798 53.4915C819.264 54.1222 818.562 54.6136 817.692 54.9659C816.823 55.3125 815.817 55.4858 814.675 55.4858ZM830.406 42.1477V45.2159H822.148V42.1477H830.406ZM823.878 39.0114H828.045V51.1222C828.045 51.3778 828.085 51.5852 828.165 51.7443C828.25 51.8977 828.372 52.0085 828.531 52.0767C828.69 52.1392 828.881 52.1705 829.102 52.1705C829.261 52.1705 829.429 52.1562 829.605 52.1278C829.787 52.0937 829.923 52.0653 830.014 52.0426L830.645 55.0511C830.446 55.108 830.165 55.179 829.801 55.2642C829.443 55.3494 829.014 55.4034 828.514 55.4261C827.537 55.4716 826.699 55.358 826 55.0852C825.307 54.8068 824.776 54.375 824.406 53.7898C824.043 53.2045 823.866 52.4687 823.878 51.5824V39.0114ZM839.973 42.1477V45.2159H831.553V42.1477H839.973ZM833.308 55.2386V41.4829C833.308 40.4716 833.499 39.6335 833.879 38.9687C834.26 38.2983 834.788 37.7983 835.465 37.4687C836.141 37.1335 836.922 36.9659 837.808 36.9659C838.388 36.9659 838.933 37.0114 839.445 37.1023C839.962 37.1875 840.345 37.2642 840.595 37.3324L839.93 40.3835C839.777 40.3324 839.59 40.2898 839.368 40.2557C839.152 40.2216 838.947 40.2045 838.754 40.2045C838.266 40.2045 837.93 40.3125 837.749 40.5284C837.567 40.7443 837.476 41.0398 837.476 41.4148V55.2386H833.308ZM846.146 37.7841V55.2386H841.978V37.7841H846.146ZM848.798 55.2386V42.1477H852.966V55.2386H848.798ZM850.886 40.6222C850.301 40.6222 849.798 40.429 849.378 40.0426C848.957 39.6506 848.747 39.179 848.747 38.6278C848.747 38.0824 848.957 37.6165 849.378 37.2301C849.798 36.8381 850.301 36.642 850.886 36.642C851.477 36.642 851.98 36.8381 852.395 37.2301C852.815 37.6165 853.026 38.0824 853.026 38.6278C853.026 39.179 852.815 39.6506 852.395 40.0426C851.98 40.429 851.477 40.6222 850.886 40.6222ZM859.164 42.1477L861.32 46.4602L863.553 42.1477H867.755L864.099 48.6932L867.891 55.2386H863.724L861.32 50.892L858.977 55.2386H854.749L858.55 48.6932L854.937 42.1477H859.164Z" fill="white"/>
<path d="M758.967 28.3402L758.949 37.1785L758.931 46.0167L758.087 43.965V43.9598L756.993 63.6354C758.069 66.2448 758.643 67.639 758.65 67.6442C758.656 67.6495 759.267 67.681 760.007 67.7126C762.244 67.8073 765.02 68.0124 767.129 68.2387C767.618 68.2913 768.034 68.3176 768.064 68.2965C768.095 68.2756 768.101 59.2794 768.095 48.2999L768.077 28.3402H758.967Z" fill="url(#paint0_linear_4_2)"/>
<path d="M742.489 28.3137V48.2946C742.489 59.2845 742.502 68.2859 742.52 68.3017C742.538 68.3174 743.327 68.2491 744.281 68.1596C745.234 68.0702 746.549 67.9545 747.203 67.9071C748.206 67.8335 751.213 67.6704 751.556 67.6651C751.66 67.6651 751.666 67.2179 751.678 59.2003L751.696 50.7355L752.424 52.5033C752.534 52.7768 752.571 52.861 752.681 53.1293L753.775 33.4589C753.543 32.896 753.665 33.1906 753.402 32.5487C752.509 30.376 751.751 28.5399 751.721 28.4558L751.66 28.3085H742.489V28.3137Z" fill="url(#paint1_linear_4_2)"/>
<path d="M742.489 28.3137L751.69 50.7513V50.7407L752.418 52.5084C756.459 62.3514 758.629 67.6334 758.641 67.6439C758.647 67.6492 759.259 67.6807 759.999 67.7123C762.236 67.807 765.012 68.0121 767.121 68.2384C767.604 68.2909 768.026 68.3173 768.05 68.2962L758.929 46.0112V46.0165L758.085 43.9648C757.26 41.9603 756.71 40.6189 753.39 32.5487C752.497 30.376 751.739 28.5399 751.709 28.4558L751.647 28.3085H747.068L742.489 28.3137Z" fill="#E30A17"/>
<path d="M306.304 110.409V112.795H298.778V110.409H306.304ZM300.636 107.273H303.722V119.563C303.722 119.977 303.784 120.295 303.909 120.517C304.04 120.733 304.21 120.881 304.42 120.96C304.631 121.04 304.864 121.08 305.119 121.08C305.313 121.08 305.489 121.065 305.648 121.037C305.813 121.009 305.938 120.983 306.023 120.96L306.543 123.372C306.378 123.429 306.142 123.491 305.835 123.56C305.534 123.628 305.165 123.668 304.727 123.679C303.955 123.702 303.259 123.585 302.639 123.33C302.02 123.068 301.528 122.665 301.165 122.119C300.807 121.574 300.631 120.892 300.636 120.074V107.273ZM308.884 123.5V110.409H311.969V123.5H308.884ZM310.435 108.551C309.947 108.551 309.526 108.389 309.174 108.065C308.822 107.736 308.646 107.341 308.646 106.881C308.646 106.415 308.822 106.02 309.174 105.696C309.526 105.366 309.947 105.202 310.435 105.202C310.93 105.202 311.35 105.366 311.697 105.696C312.049 106.02 312.225 106.415 312.225 106.881C312.225 107.341 312.049 107.736 311.697 108.065C311.35 108.389 310.93 108.551 310.435 108.551ZM317.955 119.392L317.946 115.668H318.44L323.145 110.409H326.75L320.963 116.852H320.324L317.955 119.392ZM315.142 123.5V106.045H318.227V123.5H315.142ZM323.358 123.5L319.097 117.543L321.176 115.369L327.048 123.5H323.358ZM335.343 110.409V112.795H327.817V110.409H335.343ZM329.675 107.273H332.761V119.563C332.761 119.977 332.823 120.295 332.948 120.517C333.079 120.733 333.249 120.881 333.46 120.96C333.67 121.04 333.903 121.08 334.158 121.08C334.352 121.08 334.528 121.065 334.687 121.037C334.852 121.009 334.977 120.983 335.062 120.96L335.582 123.372C335.417 123.429 335.181 123.491 334.874 123.56C334.573 123.628 334.204 123.668 333.766 123.679C332.994 123.702 332.298 123.585 331.678 123.33C331.059 123.068 330.567 122.665 330.204 122.119C329.846 121.574 329.67 120.892 329.675 120.074V107.273ZM343.493 123.756C342.214 123.756 341.107 123.474 340.169 122.912C339.232 122.349 338.504 121.563 337.987 120.551C337.476 119.54 337.22 118.358 337.22 117.006C337.22 115.653 337.476 114.469 337.987 113.452C338.504 112.435 339.232 111.645 340.169 111.082C341.107 110.52 342.214 110.239 343.493 110.239C344.771 110.239 345.879 110.52 346.817 111.082C347.754 111.645 348.479 112.435 348.99 113.452C349.507 114.469 349.766 115.653 349.766 117.006C349.766 118.358 349.507 119.54 348.99 120.551C348.479 121.563 347.754 122.349 346.817 122.912C345.879 123.474 344.771 123.756 343.493 123.756ZM343.51 121.284C344.203 121.284 344.783 121.094 345.249 120.713C345.714 120.327 346.061 119.81 346.288 119.162C346.521 118.514 346.638 117.793 346.638 116.997C346.638 116.196 346.521 115.472 346.288 114.824C346.061 114.17 345.714 113.651 345.249 113.264C344.783 112.878 344.203 112.685 343.51 112.685C342.8 112.685 342.209 112.878 341.737 113.264C341.271 113.651 340.922 114.17 340.689 114.824C340.462 115.472 340.348 116.196 340.348 116.997C340.348 117.793 340.462 118.514 340.689 119.162C340.922 119.81 341.271 120.327 341.737 120.713C342.209 121.094 342.8 121.284 343.51 121.284ZM355.197 119.392L355.188 115.668H355.683L360.387 110.409H363.992L358.205 116.852H357.566L355.197 119.392ZM352.384 123.5V106.045H355.469V123.5H352.384ZM360.6 123.5L356.339 117.543L358.418 115.369L364.29 123.5H360.6Z" fill="white"/>
<path d="M252.92 120.009C253.144 118.153 253.905 117.114 255.34 116.048C257.393 114.605 259.957 115.422 259.957 115.422V110.579C260.58 110.563 261.204 110.6 261.82 110.69V116.921C261.82 116.921 259.257 116.105 257.204 117.549C255.77 118.613 255.007 119.653 254.784 121.51C254.777 122.518 254.966 123.835 255.837 124.975C255.622 124.864 255.402 124.738 255.179 124.597C253.26 123.309 252.91 121.375 252.92 120.009ZM272.408 101.626C270.996 100.079 270.462 98.5163 270.269 97.4187H272.045C272.045 97.4187 271.691 100.296 274.273 103.126L274.309 103.164C273.613 102.727 272.975 102.21 272.408 101.626ZM280.966 106.013V112.119C280.966 112.119 278.699 112.03 277.021 111.604C274.679 111.007 273.173 110.091 273.173 110.091C273.173 110.091 272.133 109.438 272.049 109.393V122.002C272.049 122.704 271.857 124.458 271.271 125.92C270.506 127.833 269.325 129.089 269.108 129.345C269.108 129.345 267.671 131.043 265.137 132.186C262.853 133.217 260.848 133.191 260.249 133.217C260.249 133.217 256.782 133.354 253.663 131.327C252.988 130.88 252.359 130.374 251.782 129.815L251.798 129.827C254.918 131.854 258.384 131.716 258.384 131.716C258.984 131.69 260.989 131.716 263.272 130.685C265.804 129.542 267.242 127.845 267.242 127.845C267.457 127.588 268.644 126.333 269.406 124.419C269.99 122.957 270.184 121.203 270.184 120.501V107.893C270.268 107.939 271.307 108.592 271.307 108.592C271.307 108.592 272.814 109.509 275.156 110.105C276.835 110.531 279.101 110.62 279.101 110.62V105.836C279.876 106.009 280.537 106.056 280.966 106.013Z" fill="#EE1D52"/>
<path d="M279.101 105.836V110.619C279.101 110.619 276.835 110.53 275.157 110.103C272.815 109.506 271.308 108.591 271.308 108.591C271.308 108.591 270.269 107.938 270.185 107.892V120.502C270.185 121.204 269.993 122.959 269.407 124.42C268.641 126.334 267.46 127.59 267.243 127.846C267.243 127.846 265.806 129.544 263.273 130.687C260.99 131.718 258.985 131.692 258.384 131.718C258.384 131.718 254.919 131.855 251.799 129.828L251.783 129.817C251.454 129.498 251.144 129.161 250.854 128.808C249.859 127.594 249.248 126.159 249.095 125.749V125.744C248.848 125.032 248.33 123.323 248.401 121.667C248.526 118.746 249.554 116.953 249.825 116.504C250.545 115.279 251.481 114.183 252.591 113.265C253.571 112.473 254.682 111.843 255.878 111.4C257.171 110.88 258.555 110.602 259.957 110.579V115.422C259.957 115.422 257.393 114.608 255.341 116.048C253.906 117.114 253.145 118.153 252.92 120.009C252.911 121.375 253.261 123.309 255.178 124.598C255.402 124.739 255.621 124.865 255.836 124.975C256.171 125.411 256.579 125.79 257.043 126.098C258.916 127.284 260.485 127.367 262.492 126.597C263.831 126.082 264.838 124.922 265.305 123.636C265.598 122.833 265.594 122.025 265.594 121.19V97.4187H270.265C270.458 98.5163 270.992 100.079 272.404 101.626C272.971 102.21 273.609 102.727 274.305 103.164C274.51 103.377 275.561 104.428 276.91 105.074C277.608 105.407 278.343 105.663 279.101 105.836Z" fill="black"/>
<path d="M247.236 124.262V124.266L247.352 124.58C247.339 124.543 247.296 124.432 247.236 124.262Z" fill="#69C9D0"/>
<path d="M255.878 111.4C254.682 111.843 253.571 112.473 252.591 113.265C251.48 114.186 250.545 115.284 249.826 116.511C249.554 116.958 248.527 118.753 248.401 121.674C248.331 123.33 248.849 125.039 249.096 125.751V125.756C249.252 126.162 249.86 127.597 250.855 128.815C251.144 129.168 251.454 129.505 251.784 129.824C250.728 129.124 249.787 128.278 248.991 127.314C248.004 126.11 247.395 124.69 247.236 124.27C247.236 124.267 247.236 124.264 247.236 124.261V124.256C246.989 123.545 246.469 121.835 246.541 120.177C246.666 117.256 247.694 115.463 247.966 115.014C248.684 113.787 249.62 112.689 250.731 111.769C251.71 110.976 252.821 110.346 254.017 109.903C254.763 109.607 255.541 109.388 256.336 109.25C257.534 109.05 258.757 109.033 259.961 109.199V110.579C258.558 110.601 257.172 110.88 255.878 111.4Z" fill="#69C9D0"/>
<path d="M270.269 97.4188H265.598V121.19C265.598 122.026 265.598 122.832 265.309 123.637C264.837 124.922 263.834 126.082 262.496 126.597C260.488 127.37 258.919 127.284 257.047 126.098C256.582 125.792 256.173 125.413 255.837 124.979C257.432 125.795 258.86 125.78 260.629 125.1C261.965 124.585 262.97 123.425 263.44 122.139C263.735 121.337 263.731 120.529 263.731 119.694V95.9176H270.18C270.18 95.9176 270.108 96.5085 270.269 97.4188ZM279.101 104.513V105.836C278.344 105.663 277.61 105.407 276.914 105.074C275.565 104.428 274.514 103.377 274.309 103.165C274.547 103.315 274.794 103.451 275.05 103.573C276.69 104.358 278.305 104.593 279.101 104.513Z" fill="#69C9D0"/>
<path d="M626.795 105.898H629.318L635.25 120.386H635.455L641.386 105.898H643.909V123.352H641.932V110.091H641.761L636.307 123.352H634.398L628.943 110.091H628.773V123.352H626.795V105.898ZM653.363 123.625C652.102 123.625 651.013 123.347 650.099 122.79C649.19 122.227 648.488 121.443 647.994 120.438C647.505 119.426 647.261 118.25 647.261 116.909C647.261 115.568 647.505 114.386 647.994 113.364C648.488 112.335 649.175 111.534 650.056 110.96C650.942 110.381 651.977 110.091 653.158 110.091C653.84 110.091 654.514 110.205 655.178 110.432C655.843 110.659 656.448 111.028 656.994 111.54C657.539 112.045 657.974 112.716 658.298 113.551C658.621 114.386 658.783 115.415 658.783 116.636V117.489H648.692V115.75H656.738C656.738 115.011 656.59 114.352 656.295 113.773C656.005 113.193 655.59 112.736 655.05 112.401C654.516 112.065 653.886 111.898 653.158 111.898C652.357 111.898 651.664 112.097 651.079 112.494C650.499 112.886 650.053 113.398 649.741 114.028C649.428 114.659 649.272 115.335 649.272 116.057V117.216C649.272 118.205 649.442 119.043 649.783 119.73C650.13 120.412 650.61 120.932 651.224 121.29C651.837 121.642 652.55 121.818 653.363 121.818C653.891 121.818 654.369 121.744 654.795 121.597C655.227 121.443 655.599 121.216 655.911 120.915C656.224 120.608 656.465 120.227 656.636 119.773L658.579 120.318C658.374 120.977 658.031 121.557 657.548 122.057C657.065 122.551 656.468 122.938 655.758 123.216C655.048 123.489 654.249 123.625 653.363 123.625ZM667.536 110.261V111.966H660.752V110.261H667.536ZM662.729 107.125H664.741V119.602C664.741 120.17 664.823 120.597 664.988 120.881C665.158 121.159 665.374 121.347 665.636 121.443C665.903 121.534 666.184 121.58 666.479 121.58C666.701 121.58 666.883 121.568 667.025 121.545C667.167 121.517 667.281 121.494 667.366 121.477L667.775 123.284C667.638 123.335 667.448 123.386 667.204 123.438C666.96 123.494 666.65 123.523 666.275 123.523C665.707 123.523 665.15 123.401 664.604 123.156C664.065 122.912 663.616 122.54 663.258 122.04C662.906 121.54 662.729 120.909 662.729 120.148V107.125ZM674.414 123.659C673.585 123.659 672.832 123.503 672.156 123.19C671.479 122.872 670.942 122.415 670.545 121.818C670.147 121.216 669.948 120.489 669.948 119.636C669.948 118.886 670.096 118.278 670.391 117.813C670.687 117.341 671.082 116.972 671.576 116.705C672.07 116.438 672.616 116.239 673.212 116.108C673.815 115.972 674.42 115.864 675.028 115.784C675.823 115.682 676.468 115.605 676.962 115.554C677.462 115.497 677.826 115.403 678.053 115.273C678.286 115.142 678.403 114.915 678.403 114.591V114.523C678.403 113.682 678.173 113.028 677.712 112.563C677.258 112.097 676.567 111.864 675.641 111.864C674.681 111.864 673.928 112.074 673.383 112.494C672.837 112.915 672.454 113.364 672.232 113.841L670.323 113.159C670.664 112.364 671.119 111.744 671.687 111.301C672.261 110.852 672.886 110.54 673.562 110.364C674.244 110.182 674.914 110.091 675.573 110.091C675.994 110.091 676.477 110.142 677.022 110.244C677.573 110.341 678.104 110.543 678.616 110.849C679.133 111.156 679.562 111.619 679.903 112.239C680.244 112.858 680.414 113.688 680.414 114.727V123.352H678.403V121.58H678.3C678.164 121.864 677.937 122.168 677.619 122.491C677.3 122.815 676.877 123.091 676.349 123.318C675.82 123.545 675.175 123.659 674.414 123.659ZM674.721 121.852C675.516 121.852 676.187 121.696 676.732 121.384C677.283 121.071 677.698 120.668 677.977 120.173C678.261 119.679 678.403 119.159 678.403 118.614V116.773C678.317 116.875 678.13 116.969 677.84 117.054C677.556 117.134 677.227 117.205 676.852 117.267C676.482 117.324 676.121 117.375 675.769 117.42C675.423 117.46 675.141 117.494 674.925 117.523C674.403 117.591 673.914 117.702 673.46 117.855C673.011 118.003 672.647 118.227 672.369 118.528C672.096 118.824 671.96 119.227 671.96 119.739C671.96 120.438 672.218 120.966 672.735 121.324C673.258 121.676 673.92 121.852 674.721 121.852Z" fill="white"/>
<path d="M610.335 119.02C610.335 108.977 605.314 101.804 598.858 101.804C593.837 101.804 590.25 107.543 590.25 107.543C587.381 111.847 587.381 119.737 591.685 111.129C591.685 111.129 595.271 105.391 598.858 105.391C603.879 105.391 606.525 113.999 606.525 119.02C606.525 120.455 606.031 123.324 603.162 123.324V127.628C606.031 127.628 610.335 125.476 610.335 119.02Z" fill="url(#paint2_radial_4_2)"/>
<path d="M581.642 101.804V106.108C577.051 106.682 574.469 113.999 574.469 119.02C574.469 120.455 575.186 123.324 577.338 123.324C580.925 123.324 585.049 115.404 588.815 109.612C590.815 106.537 592.805 109.178 591.287 111.847C587.692 118.171 584.091 127.628 577.338 127.628C574.469 127.628 570.165 125.476 570.165 119.02C570.165 106.108 578.055 101.804 581.642 101.804Z" fill="url(#paint3_radial_4_2)"/>
<path d="M603.162 123.324C598.141 123.324 592.402 101.804 581.642 101.804V106.108C590.25 106.108 593.837 127.628 603.162 127.628V123.324Z" fill="#0768E1"/>
<defs>
<linearGradient id="paint0_linear_4_2" x1="772.203" y1="58.2209" x2="757.624" y2="64.6238" gradientUnits="userSpaceOnUse">
<stop stop-color="#B20610"/>
<stop offset="0.255959" stop-color="#B20610"/>
<stop offset="1" stop-color="#590004"/>
</linearGradient>
<linearGradient id="paint1_linear_4_2" x1="738.068" y1="37.0751" x2="753.835" y2="30.2307" gradientUnits="userSpaceOnUse">
<stop stop-color="#B20610"/>
<stop offset="0.255959" stop-color="#B20610"/>
<stop offset="1" stop-color="#590004"/>
</linearGradient>
<radialGradient id="paint2_radial_4_2" cx="0" cy="0" r="1" gradientUnits="userSpaceOnUse" gradientTransform="translate(603.162 126.193) rotate(-101.31) scale(25.6037 19.914)">
<stop stop-color="#0768E1"/>
<stop offset="1" stop-color="#0082FB"/>
</radialGradient>
<radialGradient id="paint3_radial_4_2" cx="0" cy="0" r="1" gradientUnits="userSpaceOnUse" gradientTransform="translate(581.642 104.673) rotate(154.537) scale(16.6847 8.75097)">
<stop stop-color="#0768E1"/>
<stop offset="1" stop-color="#0082FB"/>
</radialGradient>
</defs>
</svg>
